<?xml version="1.0" encoding="UTF-8" standalone="no"?>
<!-- Created with Inkscape (http://www.inkscape.org/) -->

<svg
   xmlns:dc="http://purl.org/dc/elements/1.1/"
   xmlns:cc="http://creativecommons.org/ns#"
   xmlns:rdf="http://www.w3.org/1999/02/22-rdf-syntax-ns#"
   xmlns:svg="http://www.w3.org/2000/svg"
   xmlns="http://www.w3.org/2000/svg"
   xmlns:sodipodi="http://sodipodi.sourceforge.net/DTD/sodipodi-0.dtd"
   xmlns:inkscape="http://www.inkscape.org/namespaces/inkscape"
   version="1.1"
   id="svg2"
   xml:space="preserve"
   width="620.6424"
   height="210.34111"
   viewBox="0 0 620.6424 210.34111"
   sodipodi:docname="diode_data.svg"
   inkscape:version="0.92.3 (2405546, 2018-03-11)"><metadata
     id="metadata8"><rdf:RDF><cc:Work
         rdf:about=""><dc:format>image/svg+xml</dc:format><dc:type
           rdf:resource="http://purl.org/dc/dcmitype/StillImage" /><dc:title></dc:title></cc:Work></rdf:RDF></metadata><defs
     id="defs6"><clipPath
       clipPathUnits="userSpaceOnUse"
       id="clipPath422"><path
         d="M 32768,32768 H -32768 V -32768 H 32768 Z"
         id="path420"
         inkscape:connector-curvature="0" /></clipPath></defs><sodipodi:namedview
     pagecolor="#ffffff"
     bordercolor="#666666"
     borderopacity="1"
     objecttolerance="10"
     gridtolerance="10"
     guidetolerance="10"
     inkscape:pageopacity="0"
     inkscape:pageshadow="2"
     inkscape:window-width="1680"
     inkscape:window-height="987"
     id="namedview4"
     showgrid="false"
     fit-margin-top="0"
     fit-margin-left="0"
     fit-margin-right="0"
     fit-margin-bottom="0"
     inkscape:zoom="1.2642212"
     inkscape:cx="451.85309"
     inkscape:cy="-9.9880883"
     inkscape:window-x="1672"
     inkscape:window-y="-8"
     inkscape:window-maximized="1"
     inkscape:current-layer="g10" /><g
     id="g10"
     inkscape:groupmode="layer"
     inkscape:label="diode_data"
     transform="matrix(1.3333333,0,0,-1.3333333,-99.363898,712.04321)"><g
       id="g12"
       transform="matrix(0.84407,0,0,0.84407,74.522925,533.86445)"><path
         d="M 0,0 H 551.473"
         style="fill:none;stroke:#000000;stroke-width:0.398;stroke-linecap:butt;stroke-linejoin:miter;stroke-miterlimit:10;stroke-dasharray:none;stroke-opacity:1"
         id="path14"
         inkscape:connector-curvature="0" /></g><g
       id="g16"
       transform="matrix(0.84407,0,0,0.84407,74.690895,519.82082)"><path
         d="M 0,0 V 16.438"
         style="fill:none;stroke:#000000;stroke-width:0.398;stroke-linecap:butt;stroke-linejoin:miter;stroke-miterlimit:10;stroke-dasharray:none;stroke-opacity:1"
         id="path18"
         inkscape:connector-curvature="0" /></g><text
       transform="matrix(1,0,0,-1,112.369,523.012)"
       style="font-variant:normal;font-weight:bold;font-stretch:normal;font-size:10.0909996px;font-family:'Times New Roman';-inkscape-font-specification:TimesNewRomanPS-BoldMT;writing-mode:lr-tb;fill:#000000;fill-opacity:1;fill-rule:nonzero;stroke:none"
       id="text22"><tspan
         x="0 5.0454998 7.8507981 12.896298 17.941797 20.747095 25.792597 30.838097 35.883595"
         y="0"
         sodipodi:role="line"
         id="tspan20">9/12/2018</tspan></text>
<g
       id="g24"
       transform="matrix(0.84407,0,0,0.84407,190.97757,519.82082)"><path
         d="M 0,0 V 16.438"
         style="fill:none;stroke:#000000;stroke-width:0.398;stroke-linecap:butt;stroke-linejoin:miter;stroke-miterlimit:10;stroke-dasharray:none;stroke-opacity:1"
         id="path26"
         inkscape:connector-curvature="0" /></g><text
       transform="matrix(1,0,0,-1,228.656,523.012)"
       style="font-variant:normal;font-weight:bold;font-stretch:normal;font-size:10.0909996px;font-family:'Times New Roman';-inkscape-font-specification:TimesNewRomanPS-BoldMT;writing-mode:lr-tb;fill:#000000;fill-opacity:1;fill-rule:nonzero;stroke:none"
       id="text30"><tspan
         x="0 5.0454998 7.8507981 12.896298 17.941797 20.747095 25.792597 30.838097 35.883595"
         y="0"
         sodipodi:role="line"
         id="tspan28">9/27/2018</tspan></text>
<g
       id="g32"
       transform="matrix(0.84407,0,0,0.84407,307.26341,519.82082)"><path
         d="M 0,0 V 16.438"
         style="fill:none;stroke:#000000;stroke-width:0.398;stroke-linecap:butt;stroke-linejoin:miter;stroke-miterlimit:10;stroke-dasharray:none;stroke-opacity:1"
         id="path34"
         inkscape:connector-curvature="0" /></g><text
       transform="matrix(1,0,0,-1,344.943,523.012)"
       style="font-variant:normal;font-weight:bold;font-stretch:normal;font-size:10.0909996px;font-family:'Times New Roman';-inkscape-font-specification:TimesNewRomanPS-BoldMT;writing-mode:lr-tb;fill:#000000;fill-opacity:1;fill-rule:nonzero;stroke:none"
       id="text38"><tspan
         x="0 5.0454998 10.091 12.896298 17.941797 20.747095 25.792597 30.838097 35.883595"
         y="0"
         sodipodi:role="line"
         id="tspan36">10/4/2018</tspan></text>
<g
       id="g40"
       transform="matrix(0.84407,0,0,0.84407,423.55009,519.82082)"><path
         d="M 0,0 V 16.438"
         style="fill:none;stroke:#000000;stroke-width:0.398;stroke-linecap:butt;stroke-linejoin:miter;stroke-miterlimit:10;stroke-dasharray:none;stroke-opacity:1"
         id="path42"
         inkscape:connector-curvature="0" /></g><text
       transform="matrix(1,0,0,-1,458.706,523.012)"
       style="font-variant:normal;font-weight:bold;font-stretch:normal;font-size:10.0909996px;font-family:'Times New Roman';-inkscape-font-specification:TimesNewRomanPS-BoldMT;writing-mode:lr-tb;fill:#000000;fill-opacity:1;fill-rule:nonzero;stroke:none"
       id="text46"><tspan
         x="0 5.0454998 10.091 12.896298 17.941797 22.987297 25.792597 30.838097 35.883595 40.929096"
         y="0"
         sodipodi:role="line"
         id="tspan44">10/25/2018</tspan></text>
<g
       id="g48"
       transform="matrix(0.84407,0,0,0.84407,539.83677,519.82082)"><path
         d="M 0,0 V 16.438"
         style="fill:none;stroke:#000000;stroke-width:0.398;stroke-linecap:butt;stroke-linejoin:miter;stroke-miterlimit:10;stroke-dasharray:none;stroke-opacity:1"
         id="path50"
         inkscape:connector-curvature="0" /></g><g
       id="g52"
       transform="matrix(0.84407,0,0,0.84407,74.690895,505.94599)"><path
         d="M 0,0 V 16.438"
         style="fill:none;stroke:#000000;stroke-width:0.398;stroke-linecap:butt;stroke-linejoin:miter;stroke-miterlimit:10;stroke-dasharray:none;stroke-opacity:1"
         id="path54"
         inkscape:connector-curvature="0" /></g><text
       transform="matrix(1,0,0,-1,105.488,510.819)"
       style="font-variant:normal;font-weight:bold;font-stretch:normal;font-size:10.0909996px;font-family:'Times New Roman';-inkscape-font-specification:TimesNewRomanPS-BoldMT;writing-mode:lr-tb;fill:#000000;fill-opacity:1;fill-rule:nonzero;stroke:none"
       id="text58"><tspan
         x="0 6.1656008 11.211101 14.571404 17.094154 22.139654 24.662403 29.707905 34.753403 37.276154 42.321655 45.681957"
         y="0"
         sodipodi:role="line"
         id="tspan56">P0: 0.35 atm</tspan></text>
<g
       id="g60"
       transform="matrix(0.84407,0,0,0.84407,190.97757,505.94599)"><path
         d="M 0,0 V 16.438"
         style="fill:none;stroke:#000000;stroke-width:0.398;stroke-linecap:butt;stroke-linejoin:miter;stroke-miterlimit:10;stroke-dasharray:none;stroke-opacity:1"
         id="path62"
         inkscape:connector-curvature="0" /></g><text
       transform="matrix(1,0,0,-1,221.774,510.819)"
       style="font-variant:normal;font-weight:bold;font-stretch:normal;font-size:10.0909996px;font-family:'Times New Roman';-inkscape-font-specification:TimesNewRomanPS-BoldMT;writing-mode:lr-tb;fill:#000000;fill-opacity:1;fill-rule:nonzero;stroke:none"
       id="text66"><tspan
         x="0 6.1656008 11.211101 14.571404 17.094154 22.139654 24.662403 29.707905 34.753403 37.276154 42.321655 45.681957"
         y="0"
         sodipodi:role="line"
         id="tspan64">P0: 0.35 atm</tspan></text>
<g
       id="g68"
       transform="matrix(0.84407,0,0,0.84407,307.26341,505.94599)"><path
         d="M 0,0 V 16.438"
         style="fill:none;stroke:#000000;stroke-width:0.398;stroke-linecap:butt;stroke-linejoin:miter;stroke-miterlimit:10;stroke-dasharray:none;stroke-opacity:1"
         id="path70"
         inkscape:connector-curvature="0" /></g><text
       transform="matrix(1,0,0,-1,338.06,510.819)"
       style="font-variant:normal;font-weight:bold;font-stretch:normal;font-size:10.0909996px;font-family:'Times New Roman';-inkscape-font-specification:TimesNewRomanPS-BoldMT;writing-mode:lr-tb;fill:#000000;fill-opacity:1;fill-rule:nonzero;stroke:none"
       id="text74"><tspan
         x="0 6.1656008 11.211101 14.571404 17.094154 22.139654 24.662403 29.707905 34.753403 37.276154 42.321655 45.681957"
         y="0"
         sodipodi:role="line"
         id="tspan72">P0: 0.64 atm</tspan></text>
<g
       id="g76"
       transform="matrix(0.84407,0,0,0.84407,423.55009,505.94599)"><path
         d="M 0,0 V 16.438"
         style="fill:none;stroke:#000000;stroke-width:0.398;stroke-linecap:butt;stroke-linejoin:miter;stroke-miterlimit:10;stroke-dasharray:none;stroke-opacity:1"
         id="path78"
         inkscape:connector-curvature="0" /></g><text
       transform="matrix(1,0,0,-1,454.347,510.819)"
       style="font-variant:normal;font-weight:bold;font-stretch:normal;font-size:10.0909996px;font-family:'Times New Roman';-inkscape-font-specification:TimesNewRomanPS-BoldMT;writing-mode:lr-tb;fill:#000000;fill-opacity:1;fill-rule:nonzero;stroke:none"
       id="text82"><tspan
         x="0 6.1656008 11.211101 14.571404 17.094154 22.139654 24.662403 29.707905 34.753403 37.276154 42.321655 45.681957"
         y="0"
         sodipodi:role="line"
         id="tspan80">P0: 1.00 atm</tspan></text>
<g
       id="g84"
       transform="matrix(0.84407,0,0,0.84407,539.83677,505.94599)"><path
         d="M 0,0 V 16.438"
         style="fill:none;stroke:#000000;stroke-width:0.398;stroke-linecap:butt;stroke-linejoin:miter;stroke-miterlimit:10;stroke-dasharray:none;stroke-opacity:1"
         id="path86"
         inkscape:connector-curvature="0" /></g><g
       id="g88"
       transform="matrix(0.84407,0,0,0.84407,74.522925,505.77718)"><path
         d="M 0,0 H 551.473"
         style="fill:none;stroke:#000000;stroke-width:0.398;stroke-linecap:butt;stroke-linejoin:miter;stroke-miterlimit:10;stroke-dasharray:none;stroke-opacity:1"
         id="path90"
         inkscape:connector-curvature="0" /></g><g
       id="g92"
       transform="matrix(0.84407,0,0,0.84407,74.690895,490.05216)"><path
         d="M 0,0 V 18.431"
         style="fill:none;stroke:#000000;stroke-width:0.398;stroke-linecap:butt;stroke-linejoin:miter;stroke-miterlimit:10;stroke-dasharray:none;stroke-opacity:1"
         id="path94"
         inkscape:connector-curvature="0" /></g><text
       transform="matrix(1,0,0,-1,79.905,494.926)"
       style="font-variant:normal;font-weight:bold;font-stretch:normal;font-size:10.0909996px;font-family:'Times New Roman';-inkscape-font-specification:TimesNewRomanPS-BoldMT;writing-mode:lr-tb;fill:#000000;fill-opacity:1;fill-rule:nonzero;stroke:none"
       id="text98"><tspan
         x="0 5.6105962 11.221192 15.701596 20.181999 25.792597 28.315346 31.67565 40.081451 42.886749 46.812149"
         y="0"
         sodipodi:role="line"
         id="tspan96">Speed (m/s)</tspan></text>
<text
       transform="matrix(1,0,0,-1,150.491,494.926)"
       style="font-variant:normal;font-weight:bold;font-stretch:normal;font-size:10.0909996px;font-family:'Times New Roman';-inkscape-font-specification:TimesNewRomanPS-BoldMT;writing-mode:lr-tb;fill:#000000;fill-opacity:1;fill-rule:nonzero;stroke:none"
       id="text102"><tspan
         x="0 10.091 12.61375 19.899452"
         y="0"
         sodipodi:role="line"
         id="tspan100">% CJ</tspan></text>
<g
       id="g104"
       transform="matrix(0.84407,0,0,0.84407,190.97757,490.05216)"><path
         d="M 0,0 V 18.431"
         style="fill:none;stroke:#000000;stroke-width:0.398;stroke-linecap:butt;stroke-linejoin:miter;stroke-miterlimit:10;stroke-dasharray:none;stroke-opacity:1"
         id="path106"
         inkscape:connector-curvature="0" /></g><text
       transform="matrix(1,0,0,-1,196.191,494.926)"
       style="font-variant:normal;font-weight:bold;font-stretch:normal;font-size:10.0909996px;font-family:'Times New Roman';-inkscape-font-specification:TimesNewRomanPS-BoldMT;writing-mode:lr-tb;fill:#000000;fill-opacity:1;fill-rule:nonzero;stroke:none"
       id="text110"><tspan
         x="0 5.6105962 11.221192 15.701596 20.181999 25.792597 28.315346 31.67565 40.081451 42.886749 46.812149"
         y="0"
         sodipodi:role="line"
         id="tspan108">Speed (m/s)</tspan></text>
<text
       transform="matrix(1,0,0,-1,266.777,494.926)"
       style="font-variant:normal;font-weight:bold;font-stretch:normal;font-size:10.0909996px;font-family:'Times New Roman';-inkscape-font-specification:TimesNewRomanPS-BoldMT;writing-mode:lr-tb;fill:#000000;fill-opacity:1;fill-rule:nonzero;stroke:none"
       id="text114"><tspan
         x="0 10.091 12.61375 19.899452"
         y="0"
         sodipodi:role="line"
         id="tspan112">% CJ</tspan></text>
<g
       id="g116"
       transform="matrix(0.84407,0,0,0.84407,307.26341,490.05216)"><path
         d="M 0,0 V 18.431"
         style="fill:none;stroke:#000000;stroke-width:0.398;stroke-linecap:butt;stroke-linejoin:miter;stroke-miterlimit:10;stroke-dasharray:none;stroke-opacity:1"
         id="path118"
         inkscape:connector-curvature="0" /></g><text
       transform="matrix(1,0,0,-1,312.477,494.926)"
       style="font-variant:normal;font-weight:bold;font-stretch:normal;font-size:10.0909996px;font-family:'Times New Roman';-inkscape-font-specification:TimesNewRomanPS-BoldMT;writing-mode:lr-tb;fill:#000000;fill-opacity:1;fill-rule:nonzero;stroke:none"
       id="text122"><tspan
         x="0 5.6105962 11.221192 15.701596 20.181999 25.792597 28.315346 31.67565 40.081451 42.886749 46.812149"
         y="0"
         sodipodi:role="line"
         id="tspan120">Speed (m/s)</tspan></text>
<text
       transform="matrix(1,0,0,-1,383.064,494.926)"
       style="font-variant:normal;font-weight:bold;font-stretch:normal;font-size:10.0909996px;font-family:'Times New Roman';-inkscape-font-specification:TimesNewRomanPS-BoldMT;writing-mode:lr-tb;fill:#000000;fill-opacity:1;fill-rule:nonzero;stroke:none"
       id="text126"><tspan
         x="0 10.091 12.61375 19.899452"
         y="0"
         sodipodi:role="line"
         id="tspan124">% CJ</tspan></text>
<g
       id="g128"
       transform="matrix(0.84407,0,0,0.84407,423.55009,490.05216)"><path
         d="M 0,0 V 18.431"
         style="fill:none;stroke:#000000;stroke-width:0.398;stroke-linecap:butt;stroke-linejoin:miter;stroke-miterlimit:10;stroke-dasharray:none;stroke-opacity:1"
         id="path130"
         inkscape:connector-curvature="0" /></g><text
       transform="matrix(1,0,0,-1,428.764,494.926)"
       style="font-variant:normal;font-weight:bold;font-stretch:normal;font-size:10.0909996px;font-family:'Times New Roman';-inkscape-font-specification:TimesNewRomanPS-BoldMT;writing-mode:lr-tb;fill:#000000;fill-opacity:1;fill-rule:nonzero;stroke:none"
       id="text134"><tspan
         x="0 5.6105962 11.221192 15.701596 20.181999 25.792597 28.315346 31.67565 40.081451 42.886749 46.812149"
         y="0"
         sodipodi:role="line"
         id="tspan132">Speed (m/s)</tspan></text>
<text
       transform="matrix(1,0,0,-1,499.351,494.926)"
       style="font-variant:normal;font-weight:bold;font-stretch:normal;font-size:10.0909996px;font-family:'Times New Roman';-inkscape-font-specification:TimesNewRomanPS-BoldMT;writing-mode:lr-tb;fill:#000000;fill-opacity:1;fill-rule:nonzero;stroke:none"
       id="text138"><tspan
         x="0 10.091 12.61375 19.899452"
         y="0"
         sodipodi:role="line"
         id="tspan136">% CJ</tspan></text>
<g
       id="g140"
       transform="matrix(0.84407,0,0,0.84407,539.83677,490.05216)"><path
         d="M 0,0 V 18.431"
         style="fill:none;stroke:#000000;stroke-width:0.398;stroke-linecap:butt;stroke-linejoin:miter;stroke-miterlimit:10;stroke-dasharray:none;stroke-opacity:1"
         id="path142"
         inkscape:connector-curvature="0" /></g><g
       id="g144"
       transform="matrix(0.84407,0,0,0.84407,74.522925,489.88419)"><path
         d="M 0,0 H 551.473"
         style="fill:none;stroke:#000000;stroke-width:0.398;stroke-linecap:butt;stroke-linejoin:miter;stroke-miterlimit:10;stroke-dasharray:none;stroke-opacity:1"
         id="path146"
         inkscape:connector-curvature="0" /></g><g
       id="g148"
       transform="matrix(0.84407,0,0,0.84407,74.690895,475.84055)"><path
         d="M 0,0 V 16.438"
         style="fill:none;stroke:#000000;stroke-width:0.398;stroke-linecap:butt;stroke-linejoin:miter;stroke-miterlimit:10;stroke-dasharray:none;stroke-opacity:1"
         id="path150"
         inkscape:connector-curvature="0" /></g><g
       id="g152"
       transform="matrix(0.84407,0,0,0.84407,190.97757,475.84055)"><path
         d="M 0,0 V 16.438"
         style="fill:none;stroke:#000000;stroke-width:0.398;stroke-linecap:butt;stroke-linejoin:miter;stroke-miterlimit:10;stroke-dasharray:none;stroke-opacity:1"
         id="path154"
         inkscape:connector-curvature="0" /></g><g
       id="g156"
       transform="matrix(0.84407,0,0,0.84407,307.26341,475.84055)"><path
         d="M 0,0 V 16.438"
         style="fill:none;stroke:#000000;stroke-width:0.398;stroke-linecap:butt;stroke-linejoin:miter;stroke-miterlimit:10;stroke-dasharray:none;stroke-opacity:1"
         id="path158"
         inkscape:connector-curvature="0" /></g><g
       id="g160"
       transform="matrix(0.84407,0,0,0.84407,423.55009,475.84055)"><path
         d="M 0,0 V 16.438"
         style="fill:none;stroke:#000000;stroke-width:0.398;stroke-linecap:butt;stroke-linejoin:miter;stroke-miterlimit:10;stroke-dasharray:none;stroke-opacity:1"
         id="path162"
         inkscape:connector-curvature="0" /></g><text
       transform="matrix(1,0,0,-1,429.79,479.324)"
       style="font-variant:normal;font-weight:normal;font-stretch:normal;font-size:10.0909996px;font-family:'Times New Roman';-inkscape-font-specification:TimesNewRomanPSMT;writing-mode:lr-tb;fill:#000000;fill-opacity:1;fill-rule:nonzero;stroke:none"
       id="text166"><tspan
         x="0 5.0454998 10.091 15.1365 20.181999"
         y="0"
         sodipodi:role="line"
         id="tspan164">2073 </tspan></text>
<text
       transform="matrix(1,0,0,-1,457.54025,479.324)"
       style="font-variant:normal;font-weight:normal;font-stretch:normal;font-size:10.0909996px;font-family:'Times New Roman';-inkscape-font-specification:TimesNewRomanPSMT;writing-mode:lr-tb;fill:#000000;fill-opacity:1;fill-rule:nonzero;stroke:none"
       id="text170"><tspan
         x="0 5.539959 10.585459 13.108209 18.153709 23.199209 30.76746 35.812958 40.858459 43.38121"
         y="0"
         sodipodi:role="line"
         id="tspan168">±8.86 94.3</tspan></text>
<text
       transform="matrix(1,0,0,-1,513.53521,479.324)"
       style="font-variant:normal;font-weight:normal;font-stretch:normal;font-size:10.0909996px;font-family:'Times New Roman';-inkscape-font-specification:TimesNewRomanPSMT;writing-mode:lr-tb;fill:#000000;fill-opacity:1;fill-rule:nonzero;stroke:none"
       id="text174"><tspan
         x="0 5.539959 10.585459 13.108209 18.153709"
         y="0"
         sodipodi:role="line"
         id="tspan172">±0.40</tspan></text>
<g
       id="g176"
       transform="matrix(0.84407,0,0,0.84407,539.83677,475.84055)"><path
         d="M 0,0 V 16.438"
         style="fill:none;stroke:#000000;stroke-width:0.398;stroke-linecap:butt;stroke-linejoin:miter;stroke-miterlimit:10;stroke-dasharray:none;stroke-opacity:1"
         id="path178"
         inkscape:connector-curvature="0" /></g><g
       id="g180"
       transform="matrix(0.84407,0,0,0.84407,74.690895,463.64796)"><path
         d="M 0,0 V 14.446"
         style="fill:none;stroke:#000000;stroke-width:0.398;stroke-linecap:butt;stroke-linejoin:miter;stroke-miterlimit:10;stroke-dasharray:none;stroke-opacity:1"
         id="path182"
         inkscape:connector-curvature="0" /></g><g
       id="g184"
       transform="matrix(0.84407,0,0,0.84407,190.97757,463.64796)"><path
         d="M 0,0 V 14.446"
         style="fill:none;stroke:#000000;stroke-width:0.398;stroke-linecap:butt;stroke-linejoin:miter;stroke-miterlimit:10;stroke-dasharray:none;stroke-opacity:1"
         id="path186"
         inkscape:connector-curvature="0" /></g><g
       id="g188"
       transform="matrix(0.84407,0,0,0.84407,307.26341,463.64796)"><path
         d="M 0,0 V 14.446"
         style="fill:none;stroke:#000000;stroke-width:0.398;stroke-linecap:butt;stroke-linejoin:miter;stroke-miterlimit:10;stroke-dasharray:none;stroke-opacity:1"
         id="path190"
         inkscape:connector-curvature="0" /></g><g
       id="g192"
       transform="matrix(0.84407,0,0,0.84407,423.55009,463.64796)"><path
         d="M 0,0 V 14.446"
         style="fill:none;stroke:#000000;stroke-width:0.398;stroke-linecap:butt;stroke-linejoin:miter;stroke-miterlimit:10;stroke-dasharray:none;stroke-opacity:1"
         id="path194"
         inkscape:connector-curvature="0" /></g><g
       id="g196"
       transform="matrix(0.84407,0,0,0.84407,539.83677,463.64796)"><path
         d="M 0,0 V 14.446"
         style="fill:none;stroke:#000000;stroke-width:0.398;stroke-linecap:butt;stroke-linejoin:miter;stroke-miterlimit:10;stroke-dasharray:none;stroke-opacity:1"
         id="path198"
         inkscape:connector-curvature="0" /></g><g
       id="g200"
       transform="matrix(0.84407,0,0,0.84407,74.690895,451.45452)"><path
         d="M 0,0 V 14.446"
         style="fill:none;stroke:#000000;stroke-width:0.398;stroke-linecap:butt;stroke-linejoin:miter;stroke-miterlimit:10;stroke-dasharray:none;stroke-opacity:1"
         id="path202"
         inkscape:connector-curvature="0" /></g><g
       id="g204"
       transform="matrix(0.84407,0,0,0.84407,190.97757,451.45452)"><path
         d="M 0,0 V 14.446"
         style="fill:none;stroke:#000000;stroke-width:0.398;stroke-linecap:butt;stroke-linejoin:miter;stroke-miterlimit:10;stroke-dasharray:none;stroke-opacity:1"
         id="path206"
         inkscape:connector-curvature="0" /></g><g
       id="g208"
       transform="matrix(0.84407,0,0,0.84407,307.26341,451.45452)"><path
         d="M 0,0 V 14.446"
         style="fill:none;stroke:#000000;stroke-width:0.398;stroke-linecap:butt;stroke-linejoin:miter;stroke-miterlimit:10;stroke-dasharray:none;stroke-opacity:1"
         id="path210"
         inkscape:connector-curvature="0" /></g><g
       id="g212"
       transform="matrix(0.84407,0,0,0.84407,423.55009,451.45452)"><path
         d="M 0,0 V 14.446"
         style="fill:none;stroke:#000000;stroke-width:0.398;stroke-linecap:butt;stroke-linejoin:miter;stroke-miterlimit:10;stroke-dasharray:none;stroke-opacity:1"
         id="path214"
         inkscape:connector-curvature="0" /></g><g
       id="g216"
       transform="matrix(0.84407,0,0,0.84407,539.83677,451.45452)"><path
         d="M 0,0 V 14.446"
         style="fill:none;stroke:#000000;stroke-width:0.398;stroke-linecap:butt;stroke-linejoin:miter;stroke-miterlimit:10;stroke-dasharray:none;stroke-opacity:1"
         id="path218"
         inkscape:connector-curvature="0" /></g><g
       id="g220"
       transform="matrix(0.84407,0,0,0.84407,74.690895,439.26109)"><path
         d="M 0,0 V 14.446"
         style="fill:none;stroke:#000000;stroke-width:0.398;stroke-linecap:butt;stroke-linejoin:miter;stroke-miterlimit:10;stroke-dasharray:none;stroke-opacity:1"
         id="path222"
         inkscape:connector-curvature="0" /></g><g
       id="g224"
       transform="matrix(0.84407,0,0,0.84407,190.97757,439.26109)"><path
         d="M 0,0 V 14.446"
         style="fill:none;stroke:#000000;stroke-width:0.398;stroke-linecap:butt;stroke-linejoin:miter;stroke-miterlimit:10;stroke-dasharray:none;stroke-opacity:1"
         id="path226"
         inkscape:connector-curvature="0" /></g><g
       id="g228"
       transform="matrix(0.84407,0,0,0.84407,307.26341,439.26109)"><path
         d="M 0,0 V 14.446"
         style="fill:none;stroke:#000000;stroke-width:0.398;stroke-linecap:butt;stroke-linejoin:miter;stroke-miterlimit:10;stroke-dasharray:none;stroke-opacity:1"
         id="path230"
         inkscape:connector-curvature="0" /></g><text
       transform="matrix(1,0,0,-1,313.504,479.324)"
       style="font-variant:normal;font-weight:normal;font-stretch:normal;font-size:10.0909996px;font-family:'Times New Roman';-inkscape-font-specification:TimesNewRomanPSMT;writing-mode:lr-tb;fill:#000000;fill-opacity:1;fill-rule:nonzero;stroke:none"
       id="text240"><tspan
         x="0 5.0454998 10.091 15.1365 20.181999 27.810947 33.350906 38.396408 40.919155 45.964657 51.010155 58.637005 63.682507 68.728004 71.250755 76.296257 83.925003 89.464958 94.51046 97.033211 102.07871 107.12421"
         y="0"
         sodipodi:role="line"
         id="tspan232">2102 ±9.07 96.4 ±0.42 </tspan><tspan
         x="0 5.0454998 10.091 15.1365 20.181999 27.810947 33.350906 38.396408 40.919155 45.964657 51.010155 58.637005 63.682507 68.728004 71.250755 76.296257 83.925003 89.464958 94.51046 97.033211 102.07871 107.12421"
         y="12.193"
         sodipodi:role="line"
         id="tspan234">2102 ±9.07 96.4 ±0.42 </tspan><tspan
         x="0 5.0454998 10.091 15.1365 20.181999 27.810947 33.350906 38.396408 40.919155 45.964657 51.010155 58.638004 63.683502 68.729004 71.251755 76.297256 83.927002 89.466957 94.512459 97.03521 102.0807 107.12621"
         y="24.386"
         sodipodi:role="line"
         id="tspan236">2102 ±9.07 96.4 ±0.42 </tspan><tspan
         x="0 5.0454998 10.091 15.1365 20.181999"
         y="36.578999"
         sodipodi:role="line"
         id="tspan238">2088 </tspan></text>
<text
       transform="matrix(1,0,0,-1,341.25425,442.745)"
       style="font-variant:normal;font-weight:normal;font-stretch:normal;font-size:10.0909996px;font-family:'Times New Roman';-inkscape-font-specification:TimesNewRomanPSMT;writing-mode:lr-tb;fill:#000000;fill-opacity:1;fill-rule:nonzero;stroke:none"
       id="text244"><tspan
         x="0 5.539959 10.585459 13.108209 18.153709 23.199209 30.76746 35.812958 40.858459 43.38121 48.426708"
         y="0"
         sodipodi:role="line"
         id="tspan242">±8.96 95.7 </tspan></text>
<text
       transform="matrix(1,0,0,-1,397.24921,442.745)"
       style="font-variant:normal;font-weight:normal;font-stretch:normal;font-size:10.0909996px;font-family:'Times New Roman';-inkscape-font-specification:TimesNewRomanPSMT;writing-mode:lr-tb;fill:#000000;fill-opacity:1;fill-rule:nonzero;stroke:none"
       id="text248"><tspan
         x="0 5.539959 10.585459 13.108209 18.153709"
         y="0"
         sodipodi:role="line"
         id="tspan246">±0.42</tspan></text>
<g
       id="g250"
       transform="matrix(0.84407,0,0,0.84407,423.55009,439.26109)"><path
         d="M 0,0 V 14.446"
         style="fill:none;stroke:#000000;stroke-width:0.398;stroke-linecap:butt;stroke-linejoin:miter;stroke-miterlimit:10;stroke-dasharray:none;stroke-opacity:1"
         id="path252"
         inkscape:connector-curvature="0" /></g><g
       id="g254"
       transform="matrix(0.84407,0,0,0.84407,539.83677,439.26109)"><path
         d="M 0,0 V 14.446"
         style="fill:none;stroke:#000000;stroke-width:0.398;stroke-linecap:butt;stroke-linejoin:miter;stroke-miterlimit:10;stroke-dasharray:none;stroke-opacity:1"
         id="path256"
         inkscape:connector-curvature="0" /></g><g
       id="g258"
       transform="matrix(0.84407,0,0,0.84407,74.690895,427.06765)"><path
         d="M 0,0 V 14.446"
         style="fill:none;stroke:#000000;stroke-width:0.398;stroke-linecap:butt;stroke-linejoin:miter;stroke-miterlimit:10;stroke-dasharray:none;stroke-opacity:1"
         id="path260"
         inkscape:connector-curvature="0" /></g><g
       id="g262"
       transform="matrix(0.84407,0,0,0.84407,190.97757,427.06765)"><path
         d="M 0,0 V 14.446"
         style="fill:none;stroke:#000000;stroke-width:0.398;stroke-linecap:butt;stroke-linejoin:miter;stroke-miterlimit:10;stroke-dasharray:none;stroke-opacity:1"
         id="path264"
         inkscape:connector-curvature="0" /></g><g
       id="g266"
       transform="matrix(0.84407,0,0,0.84407,307.26341,427.06765)"><path
         d="M 0,0 V 14.446"
         style="fill:none;stroke:#000000;stroke-width:0.398;stroke-linecap:butt;stroke-linejoin:miter;stroke-miterlimit:10;stroke-dasharray:none;stroke-opacity:1"
         id="path268"
         inkscape:connector-curvature="0" /></g><g
       id="g270"
       transform="matrix(0.84407,0,0,0.84407,423.55009,427.06765)"><path
         d="M 0,0 V 14.446"
         style="fill:none;stroke:#000000;stroke-width:0.398;stroke-linecap:butt;stroke-linejoin:miter;stroke-miterlimit:10;stroke-dasharray:none;stroke-opacity:1"
         id="path272"
         inkscape:connector-curvature="0" /></g><g
       id="g274"
       transform="matrix(0.84407,0,0,0.84407,539.83677,427.06765)"><path
         d="M 0,0 V 14.446"
         style="fill:none;stroke:#000000;stroke-width:0.398;stroke-linecap:butt;stroke-linejoin:miter;stroke-miterlimit:10;stroke-dasharray:none;stroke-opacity:1"
         id="path276"
         inkscape:connector-curvature="0" /></g><g
       id="g278"
       transform="matrix(0.84407,0,0,0.84407,74.690895,414.87422)"><path
         d="M 0,0 V 14.446"
         style="fill:none;stroke:#000000;stroke-width:0.398;stroke-linecap:butt;stroke-linejoin:miter;stroke-miterlimit:10;stroke-dasharray:none;stroke-opacity:1"
         id="path280"
         inkscape:connector-curvature="0" /></g><g
       id="g282"
       transform="matrix(0.84407,0,0,0.84407,190.97757,414.87422)"><path
         d="M 0,0 V 14.446"
         style="fill:none;stroke:#000000;stroke-width:0.398;stroke-linecap:butt;stroke-linejoin:miter;stroke-miterlimit:10;stroke-dasharray:none;stroke-opacity:1"
         id="path284"
         inkscape:connector-curvature="0" /></g><g
       id="g286"
       transform="matrix(0.84407,0,0,0.84407,307.26341,414.87422)"><path
         d="M 0,0 V 14.446"
         style="fill:none;stroke:#000000;stroke-width:0.398;stroke-linecap:butt;stroke-linejoin:miter;stroke-miterlimit:10;stroke-dasharray:none;stroke-opacity:1"
         id="path288"
         inkscape:connector-curvature="0" /></g><g
       id="g290"
       transform="matrix(0.84407,0,0,0.84407,423.55009,414.87422)"><path
         d="M 0,0 V 14.446"
         style="fill:none;stroke:#000000;stroke-width:0.398;stroke-linecap:butt;stroke-linejoin:miter;stroke-miterlimit:10;stroke-dasharray:none;stroke-opacity:1"
         id="path292"
         inkscape:connector-curvature="0" /></g><g
       id="g294"
       transform="matrix(0.84407,0,0,0.84407,539.83677,414.87422)"><path
         d="M 0,0 V 14.446"
         style="fill:none;stroke:#000000;stroke-width:0.398;stroke-linecap:butt;stroke-linejoin:miter;stroke-miterlimit:10;stroke-dasharray:none;stroke-opacity:1"
         id="path296"
         inkscape:connector-curvature="0" /></g><g
       id="g298"
       transform="matrix(0.84407,0,0,0.84407,74.690895,402.68163)"><path
         d="M 0,0 V 14.446"
         style="fill:none;stroke:#000000;stroke-width:0.398;stroke-linecap:butt;stroke-linejoin:miter;stroke-miterlimit:10;stroke-dasharray:none;stroke-opacity:1"
         id="path300"
         inkscape:connector-curvature="0" /></g><g
       id="g302"
       transform="matrix(0.84407,0,0,0.84407,190.97757,402.68163)"><path
         d="M 0,0 V 14.446"
         style="fill:none;stroke:#000000;stroke-width:0.398;stroke-linecap:butt;stroke-linejoin:miter;stroke-miterlimit:10;stroke-dasharray:none;stroke-opacity:1"
         id="path304"
         inkscape:connector-curvature="0" /></g><g
       id="g306"
       transform="matrix(0.84407,0,0,0.84407,307.26341,402.68163)"><path
         d="M 0,0 V 14.446"
         style="fill:none;stroke:#000000;stroke-width:0.398;stroke-linecap:butt;stroke-linejoin:miter;stroke-miterlimit:10;stroke-dasharray:none;stroke-opacity:1"
         id="path308"
         inkscape:connector-curvature="0" /></g><g
       id="g310"
       transform="matrix(0.84407,0,0,0.84407,423.55009,402.68163)"><path
         d="M 0,0 V 14.446"
         style="fill:none;stroke:#000000;stroke-width:0.398;stroke-linecap:butt;stroke-linejoin:miter;stroke-miterlimit:10;stroke-dasharray:none;stroke-opacity:1"
         id="path312"
         inkscape:connector-curvature="0" /></g><g
       id="g314"
       transform="matrix(0.84407,0,0,0.84407,539.83677,402.68163)"><path
         d="M 0,0 V 14.446"
         style="fill:none;stroke:#000000;stroke-width:0.398;stroke-linecap:butt;stroke-linejoin:miter;stroke-miterlimit:10;stroke-dasharray:none;stroke-opacity:1"
         id="path316"
         inkscape:connector-curvature="0" /></g><g
       id="g318"
       transform="matrix(0.84407,0,0,0.84407,74.690895,390.48819)"><path
         d="M 0,0 V 14.446"
         style="fill:none;stroke:#000000;stroke-width:0.398;stroke-linecap:butt;stroke-linejoin:miter;stroke-miterlimit:10;stroke-dasharray:none;stroke-opacity:1"
         id="path320"
         inkscape:connector-curvature="0" /></g><g
       id="g322"
       transform="matrix(0.84407,0,0,0.84407,190.97757,390.48819)"><path
         d="M 0,0 V 14.446"
         style="fill:none;stroke:#000000;stroke-width:0.398;stroke-linecap:butt;stroke-linejoin:miter;stroke-miterlimit:10;stroke-dasharray:none;stroke-opacity:1"
         id="path324"
         inkscape:connector-curvature="0" /></g><text
       transform="matrix(1,0,0,-1,197.218,479.324)"
       style="font-variant:normal;font-weight:normal;font-stretch:normal;font-size:10.0909996px;font-family:'Times New Roman';-inkscape-font-specification:TimesNewRomanPSMT;writing-mode:lr-tb;fill:#000000;fill-opacity:1;fill-rule:nonzero;stroke:none"
       id="text342"><tspan
         x="0 5.0454998 10.091 15.1365 20.181999 27.810947 33.350906 38.396408 40.919155 45.964657 51.010155 58.637005 63.682507 68.728004 71.250755 76.296257 83.925003 89.464958 94.51046 97.033211 102.07871 107.12421"
         y="0"
         sodipodi:role="line"
         id="tspan326">1954 ±8.05 90.5 ±0.37 </tspan><tspan
         x="0 5.0454998 10.091 15.1365 20.181999 27.810947 33.350906 38.396408 40.919155 45.964657 51.010155 58.637005 63.682507 68.728004 71.250755 76.296257 83.925003 89.464958 94.51046 97.033211 102.07871 107.12421"
         y="12.193"
         sodipodi:role="line"
         id="tspan328">1966 ±8.14 91.0 ±0.38 </tspan><tspan
         x="0 5.0454998 10.091 15.1365 20.181999 27.810947 33.350906 38.396408 40.919155 45.964657 51.010155 58.637005 63.682507 68.728004 71.250755 76.296257 83.925003 89.464958 94.51046 97.033211 102.07871 107.12421"
         y="24.386"
         sodipodi:role="line"
         id="tspan330">1992 ±8.31 92.2 ±0.38 </tspan><tspan
         x="0 5.0454998 10.091 15.1365 20.181999 27.810947 33.350906 38.396408 40.919155 45.964657 51.010155 58.637005 63.682507 68.728004 71.250755 76.296257 83.925003 89.464958 94.51046 97.033211 102.07871 107.12421"
         y="36.578999"
         sodipodi:role="line"
         id="tspan332">1992 ±8.31 92.2 ±0.38 </tspan><tspan
         x="0 5.0454998 10.091 15.1365 20.181999 27.810947 33.350906 38.396408 40.919155 45.964657 51.010155 58.637005 63.682507 68.728004 71.250755 76.296257 83.925003 89.464958 94.51046 97.033211 102.07871 107.12421"
         y="48.771999"
         sodipodi:role="line"
         id="tspan334">2005 ±8.40 92.8 ±0.39 </tspan><tspan
         x="0 5.0454998 10.091 15.1365 20.181999 27.810947 33.350906 38.396408 40.919155 45.964657 51.010155 58.637005 63.682507 68.728004 71.250755 76.296257 83.925003 89.464958 94.51046 97.033211 102.07871 107.12421"
         y="60.965"
         sodipodi:role="line"
         id="tspan336">2005 ±8.40 92.8 ±0.39 </tspan><tspan
         x="0 5.0454998 10.091 15.1365 20.181999 27.810947 33.350906 38.396408 40.919155 45.964657 51.010155 58.638004 63.683502 68.729004 71.251755 76.297256 83.927002 89.466957 94.512459 97.03521 102.0807 107.12621"
         y="73.157997"
         sodipodi:role="line"
         id="tspan338">2046 ±8.67 94.7 ±0.40 </tspan><tspan
         x="0 5.0454998 10.091 15.1365"
         y="85.350998"
         sodipodi:role="line"
         id="tspan340">2005</tspan></text>
<text
       transform="matrix(1,0,0,-1,224.96825,393.973)"
       style="font-variant:normal;font-weight:normal;font-stretch:normal;font-size:10.0909996px;font-family:'Times New Roman';-inkscape-font-specification:TimesNewRomanPSMT;writing-mode:lr-tb;fill:#000000;fill-opacity:1;fill-rule:nonzero;stroke:none"
       id="text346"><tspan
         x="0 5.539959 10.585459 13.108209 18.153709 23.199209 30.76746 35.812958 40.858459 43.38121 48.426708"
         y="0"
         sodipodi:role="line"
         id="tspan344">±8.40 92.8 </tspan></text>
<text
       transform="matrix(1,0,0,-1,280.96321,393.973)"
       style="font-variant:normal;font-weight:normal;font-stretch:normal;font-size:10.0909996px;font-family:'Times New Roman';-inkscape-font-specification:TimesNewRomanPSMT;writing-mode:lr-tb;fill:#000000;fill-opacity:1;fill-rule:nonzero;stroke:none"
       id="text350"><tspan
         x="0 5.539959 10.585459 13.108209 18.153709"
         y="0"
         sodipodi:role="line"
         id="tspan348">±0.39</tspan></text>
<g
       id="g352"
       transform="matrix(0.84407,0,0,0.84407,307.26341,390.48819)"><path
         d="M 0,0 V 14.446"
         style="fill:none;stroke:#000000;stroke-width:0.398;stroke-linecap:butt;stroke-linejoin:miter;stroke-miterlimit:10;stroke-dasharray:none;stroke-opacity:1"
         id="path354"
         inkscape:connector-curvature="0" /></g><g
       id="g356"
       transform="matrix(0.84407,0,0,0.84407,423.55009,390.48819)"><path
         d="M 0,0 V 14.446"
         style="fill:none;stroke:#000000;stroke-width:0.398;stroke-linecap:butt;stroke-linejoin:miter;stroke-miterlimit:10;stroke-dasharray:none;stroke-opacity:1"
         id="path358"
         inkscape:connector-curvature="0" /></g><g
       id="g360"
       transform="matrix(0.84407,0,0,0.84407,539.83677,390.48819)"><path
         d="M 0,0 V 14.446"
         style="fill:none;stroke:#000000;stroke-width:0.398;stroke-linecap:butt;stroke-linejoin:miter;stroke-miterlimit:10;stroke-dasharray:none;stroke-opacity:1"
         id="path362"
         inkscape:connector-curvature="0" /></g><g
       id="g364"
       transform="matrix(0.84407,0,0,0.84407,74.690895,376.61252)"><path
         d="M 0,0 V 16.438"
         style="fill:none;stroke:#000000;stroke-width:0.398;stroke-linecap:butt;stroke-linejoin:miter;stroke-miterlimit:10;stroke-dasharray:none;stroke-opacity:1"
         id="path366"
         inkscape:connector-curvature="0" /></g><text
       transform="matrix(1,0,0,-1,80.931,479.324)"
       style="font-variant:normal;font-weight:normal;font-stretch:normal;font-size:10.0909996px;font-family:'Times New Roman';-inkscape-font-specification:TimesNewRomanPSMT;writing-mode:lr-tb;fill:#000000;fill-opacity:1;fill-rule:nonzero;stroke:none"
       id="text386"><tspan
         x="0 5.0454998 10.091 15.1365 20.181999 27.810947 33.350906 38.396408 40.919155 45.964657 51.010155 58.637005 63.682507 68.728004 71.250755 76.296257 83.925003 89.464958 94.51046 97.033211 102.07871 107.12421"
         y="0"
         sodipodi:role="line"
         id="tspan368">2059 ±8.77 95.4 ±0.41 </tspan><tspan
         x="0 5.0454998 10.091 15.1365 20.181999 27.810947 33.350906 38.396408 40.919155 45.964657 51.010155 58.637005 63.682507 68.728004 71.250755 76.296257 83.925003 89.464958 94.51046 97.033211 102.07871 107.12421"
         y="12.193"
         sodipodi:role="line"
         id="tspan370">2059 ±8.77 95.4 ±0.41 </tspan><tspan
         x="0 5.0454998 10.091 15.1365 20.181999 27.810947 33.350906 38.396408 40.919155 45.964657 51.010155 58.637005 63.682507 68.728004 71.250755 76.296257 83.925003 89.464958 94.51046 97.033211 102.07871 107.12421"
         y="24.386"
         sodipodi:role="line"
         id="tspan372">2032 ±8.58 94.1 ±0.40 </tspan><tspan
         x="0 5.0454998 10.091 15.1365 20.181999 27.810947 33.350906 38.396408 40.919155 45.964657 51.010155 58.637005 63.682507 68.728004 71.250755 76.296257 83.925003 89.464958 94.51046 97.033211 102.07871 107.12421"
         y="36.578999"
         sodipodi:role="line"
         id="tspan374">2032 ±8.58 94.1 ±0.40 </tspan><tspan
         x="0 5.0454998 10.091 15.1365 20.181999 27.810947 33.350906 38.396408 40.919155 45.964657 51.010155 58.637005 63.682507 68.728004 71.250755 76.296257 83.925003 89.464958 94.51046 97.033211 102.07871 107.12421"
         y="48.771999"
         sodipodi:role="line"
         id="tspan376">1992 ±8.31 92.2 ±0.38 </tspan><tspan
         x="0 5.0454998 10.091 15.1365 20.181999 27.810947 33.350906 38.396408 40.919155 45.964657 51.010155 58.637005 63.682507 68.728004 71.250755 76.296257 83.925003 89.464958 94.51046 97.033211 102.07871 107.12421"
         y="60.965"
         sodipodi:role="line"
         id="tspan378">2005 ±8.40 92.8 ±0.39 </tspan><tspan
         x="0 5.0454998 10.091 15.1365 20.181999 27.810947 33.350906 38.396408 40.919155 45.964657 51.010155 58.637005 63.682507 68.728004 71.250755 76.296257 83.925003 89.464958 94.51046 97.033211 102.07871 107.12421"
         y="73.157997"
         sodipodi:role="line"
         id="tspan380">2032 ±8.58 94.1 ±0.40 </tspan><tspan
         x="0 5.0454998 10.091 15.1365 20.181999 27.810947 33.350906 38.396408 40.919155 45.964657 51.010155 58.638004 63.683502 68.729004 71.251755 76.297256 83.927002 89.466957 94.512459 97.03521 102.0807 107.12621"
         y="85.350998"
         sodipodi:role="line"
         id="tspan382">1966 ±8.14 91.0 ±0.38 </tspan><tspan
         x="0 5.0454998 10.091 15.1365 20.181999"
         y="97.543999"
         sodipodi:role="line"
         id="tspan384">2018 </tspan></text>
<text
       transform="matrix(1,0,0,-1,108.68125,381.78)"
       style="font-variant:normal;font-weight:normal;font-stretch:normal;font-size:10.0909996px;font-family:'Times New Roman';-inkscape-font-specification:TimesNewRomanPSMT;writing-mode:lr-tb;fill:#000000;fill-opacity:1;fill-rule:nonzero;stroke:none"
       id="text390"><tspan
         x="0 5.539959 10.585459 13.108209 18.153709 23.199209 30.76746 35.812958 40.858459 43.38121 48.426708"
         y="0"
         sodipodi:role="line"
         id="tspan388">±8.49 93.5 </tspan></text>
<text
       transform="matrix(1,0,0,-1,164.67621,381.78)"
       style="font-variant:normal;font-weight:normal;font-stretch:normal;font-size:10.0909996px;font-family:'Times New Roman';-inkscape-font-specification:TimesNewRomanPSMT;writing-mode:lr-tb;fill:#000000;fill-opacity:1;fill-rule:nonzero;stroke:none"
       id="text394"><tspan
         x="0 5.539959 10.585459 13.108209 18.153709"
         y="0"
         sodipodi:role="line"
         id="tspan392">±0.39</tspan></text>
<g
       id="g396"
       transform="matrix(0.84407,0,0,0.84407,190.97757,376.61252)"><path
         d="M 0,0 V 16.438"
         style="fill:none;stroke:#000000;stroke-width:0.398;stroke-linecap:butt;stroke-linejoin:miter;stroke-miterlimit:10;stroke-dasharray:none;stroke-opacity:1"
         id="path398"
         inkscape:connector-curvature="0" /></g><g
       id="g400"
       transform="matrix(0.84407,0,0,0.84407,307.26341,376.61252)"><path
         d="M 0,0 V 16.438"
         style="fill:none;stroke:#000000;stroke-width:0.398;stroke-linecap:butt;stroke-linejoin:miter;stroke-miterlimit:10;stroke-dasharray:none;stroke-opacity:1"
         id="path402"
         inkscape:connector-curvature="0" /></g><g
       id="g404"
       transform="matrix(0.84407,0,0,0.84407,423.55009,376.61252)"><path
         d="M 0,0 V 16.438"
         style="fill:none;stroke:#000000;stroke-width:0.398;stroke-linecap:butt;stroke-linejoin:miter;stroke-miterlimit:10;stroke-dasharray:none;stroke-opacity:1"
         id="path406"
         inkscape:connector-curvature="0" /></g><g
       id="g408"
       transform="matrix(0.84407,0,0,0.84407,539.83677,376.61252)"><path
         d="M 0,0 V 16.438"
         style="fill:none;stroke:#000000;stroke-width:0.398;stroke-linecap:butt;stroke-linejoin:miter;stroke-miterlimit:10;stroke-dasharray:none;stroke-opacity:1"
         id="path410"
         inkscape:connector-curvature="0" /></g><g
       id="g412"
       transform="matrix(0.84407,0,0,0.84407,74.522925,376.44455)"><path
         d="M 0,0 H 551.473"
         style="fill:none;stroke:#000000;stroke-width:0.398;stroke-linecap:butt;stroke-linejoin:miter;stroke-miterlimit:10;stroke-dasharray:none;stroke-opacity:1"
         id="path414"
         inkscape:connector-curvature="0" /></g><g
       id="g416"
       transform="matrix(0.8667,0,0,0.8667,72,116.562)"><g
         id="g418" /><g
         id="g428"><g
           clip-path="url(#clipPath422)"
           id="g426"><g
             id="g424" /></g></g></g></g></svg>