<?xml version="1.0" encoding="UTF-8" standalone="no"?>
<!-- Created with Inkscape (http://www.inkscape.org/) -->

<svg
   xmlns:dc="http://purl.org/dc/elements/1.1/"
   xmlns:cc="http://creativecommons.org/ns#"
   xmlns:rdf="http://www.w3.org/1999/02/22-rdf-syntax-ns#"
   xmlns:svg="http://www.w3.org/2000/svg"
   xmlns="http://www.w3.org/2000/svg"
   xmlns:sodipodi="http://sodipodi.sourceforge.net/DTD/sodipodi-0.dtd"
   xmlns:inkscape="http://www.inkscape.org/namespaces/inkscape"
   width="154.25209mm"
   height="202.40625mm"
   viewBox="0 0 154.25209 202.40625"
   version="1.1"
   id="svg5012"
   inkscape:version="0.92.3 (2405546, 2018-03-11)"
   sodipodi:docname="fast.svg">
  <defs
     id="defs5006" />
  <sodipodi:namedview
     id="base"
     pagecolor="#ffffff"
     bordercolor="#666666"
     borderopacity="1.0"
     inkscape:pageopacity="0.0"
     inkscape:pageshadow="2"
     inkscape:zoom="0.7"
     inkscape:cx="-165.5422"
     inkscape:cy="452.13796"
     inkscape:document-units="mm"
     inkscape:current-layer="layer1"
     showgrid="false"
     inkscape:pagecheckerboard="true"
     fit-margin-top="0"
     fit-margin-left="0"
     fit-margin-right="0"
     fit-margin-bottom="0"
     inkscape:window-width="1680"
     inkscape:window-height="987"
     inkscape:window-x="1672"
     inkscape:window-y="-8"
     inkscape:window-maximized="1" />
  <metadata
     id="metadata5009">
    <rdf:RDF>
      <cc:Work
         rdf:about="">
        <dc:format>image/svg+xml</dc:format>
        <dc:type
           rdf:resource="http://purl.org/dc/dcmitype/StillImage" />
        <dc:title></dc:title>
      </cc:Work>
    </rdf:RDF>
  </metadata>
  <g
     inkscape:label="Layer 1"
     inkscape:groupmode="layer"
     id="layer1"
     transform="translate(-39.817425,-51.517063)"
     style="display:inline">
    <path
       style="fill:#000000;stroke-width:1.00000012"
       d="M 203.2168 2.1484375 C 151.03354 2.5134709 97.293243 14.06783 54.675781 35.099609 C 44.589666 40.077122 42.522845 42 47.257812 42 C 52.496703 42 79.448814 51.66374 92.294922 58.148438 C 111.09927 67.64084 135.04897 86.690704 143.11328 98.570312 C 146.06925 102.92467 150 110.74382 150 112.26953 C 150 113.0486 146.9764 114.57377 142.75 115.92578 C 112.22736 125.68983 81.912526 144.42986 56.181641 169.44141 C 28.567055 196.28399 7.1537326 226.08599 3.0625 243.37109 C 2.4283217 246.05051 2.0957963 248.42986 2.3222656 248.65625 C 2.5487236 248.88268 4.7063818 248.4418 7.1171875 247.67773 C 37.722195 237.97799 76.256181 233.29975 104 235.91602 C 121.18113 237.53622 144.04597 243.16827 143.98047 245.76367 C 143.97027 246.1688 140.33295 250.77499 135.89648 256 C 114.52236 281.17317 99.853139 310.30911 93.958984 339.29688 C 91.66624 350.57277 90.22031 378.60757 91.431641 388.30273 L 92.152344 394.07617 L 98.326172 389.56641 C 147.5067 353.6412 179.04763 340.89832 222.75 339.29883 C 233.95536 338.88871 239 339.03475 239 339.76953 C 239 340.35558 233.0375 346.52669 225.75 353.48242 C 216.58713 362.22817 208.64421 368.67981 200 374.40039 C 193.125 378.95015 185.76041 384.6055 183.63477 386.9668 C 177.99068 393.23662 174.69794 401.08168 174.58984 408.51367 C 174.51884 413.3983 173.95459 415.47229 171.81641 418.70312 C 166.81151 426.26566 158.9687 441.05114 155.5918 449.29297 C 150.71735 461.18979 146.11678 481 148.22852 481 C 148.7401 481 153.23393 478.97499 158.21484 476.5 C 170.39134 470.44928 173.59902 470.4448 178.63281 476.4668 C 181.74509 480.19009 183.12679 481.04249 186.93359 481.5957 C 192.33121 482.38007 195.04797 483.67583 203.67773 489.58398 C 207.22501 492.01256 210.77226 494 211.5625 494 C 213.83971 494 213.24114 496.39589 210.25 499.25 C 206.73835 502.60078 197.99521 506.64804 191.23633 508.05273 C 185.23063 509.30089 185.24752 510.45038 191.29297 512.08008 C 196.64188 513.52197 203.80638 512.68025 213.14258 509.51172 C 222.10318 506.47067 222.96257 506.42392 222.28125 509.0293 C 221.34137 512.6234 224.88611 519.89689 228.85352 522.51562 C 233.80239 525.7822 242.7207 527.91133 253.51367 528.4043 C 263.96059 528.88146 263.30974 527.16848 259.4375 544 C 255.2601 562.15791 256.38714 560.38694 248.43555 561.26562 C 216.83127 564.7581 211.22321 567.27781 207.88672 579.48047 C 206.77595 583.54293 207.35257 588.67607 210.10938 599.2832 L 211.35156 604.06641 L 207.23438 608.2832 C 200.07742 615.61269 199.37977 620.43758 204.10938 629.90234 L 207.21875 636.125 L 192.85156 650.3125 C 175.82278 667.12758 164.82901 680.10977 153.95508 696.24805 C 141.21501 715.15589 134.63807 729.76776 131.55664 746.01172 C 129.12667 758.82148 129.2581 759.56639 134.25 761.37305 C 136.5875 762.21898 139.4 763.104 140.5 763.33984 C 150.34477 765.44946 181.37278 761.26304 209 754.09766 C 239.60536 746.15985 284.34426 727.78513 299.26172 717.02734 C 307.72144 710.92658 309.509 706.98015 309.46289 694.5 C 309.42359 683.86758 309.08477 682.56645 299.57227 656.64648 L 295.95508 646.79102 L 299.41016 642.9668 C 304.11926 637.75437 305.26605 633.4572 305.53516 620 C 305.66173 613.675 306.08829 607.72088 306.48242 606.76953 C 307.57077 604.14227 313.32771 601 317.05273 601 C 320.43549 601 325 604.20098 325 606.57422 C 325 607.24875 323.87935 610.20829 322.50977 613.15039 C 319.38954 619.85308 319.37937 623.42421 322.46484 628.5 C 330.08448 641.0348 330.41563 643.26041 326.5 655.59766 C 324.35262 662.3632 324 665.35482 324 676.79492 C 324 690.24913 324.6148 694.54951 328.11328 705.56445 L 330.03906 711.62695 L 340.26953 712.80469 C 369.61722 716.18045 376.90436 716.49231 426.5 716.49609 C 477.22523 716.50009 500.03111 715.5757 527 712.42773 C 547.65194 710.01708 558.49382 707.02047 559.70508 703.38672 C 560.16629 702.00303 547.24542 700.22372 528.3457 699.06836 C 520.56086 698.59252 491.87339 698.45154 464.5957 698.75391 C 433.06139 699.10366 415 698.95266 415 698.33984 C 415 697.8098 423.43752 694.987 433.75 692.06641 C 480.37629 678.86161 528.9413 661.9316 550.89062 651.23047 C 561.04021 646.28216 568 640.57051 568 637.18945 C 568 627.50441 530.28979 608.0893 498 601.15039 C 479.13653 597.09673 453.26449 594.05355 437.37305 594.01953 C 431.30728 594.00643 427.89991 593.5807 427.2168 592.75 C 426.65146 592.0625 425.41276 588.80002 424.46289 585.5 C 423.05071 580.59383 421.76289 578.5885 417.4043 574.5 C 411.18452 568.66558 410 566.01223 410 557.91992 C 410 552.55224 409.66941 551.60823 406.61328 548.27344 C 403.43523 544.80557 402.80186 544.5562 396.36328 544.2168 C 391.38886 543.95461 386.61095 544.56195 379 546.42578 C 373.225 547.84004 367.80017 548.99733 366.94531 548.99805 C 365.7692 548.99903 363.65079 542.856 358.23828 523.75 C 348.52138 489.44954 347.60017 485.63394 348.92188 485.19336 C 353.42724 483.6916 369.56867 469.02855 375.55469 461 C 379.87915 455.20001 385.86455 442.5248 387.93555 434.78516 C 390.59463 424.84768 392.39811 409.036 391.62305 402.44141 C 391.25783 399.3338 391.37718 397 391.90234 397 C 392.40812 397 397.24301 398.17709 402.64648 399.61523 C 421.54896 404.64635 431.62858 402.11459 450.36914 387.62891 C 459.88225 380.27565 463.12628 378.77712 464.55078 381.08203 C 466.11188 383.60793 474.61593 386.24447 481.5 386.33594 C 490.10682 386.45046 495.45528 384.12124 498.91797 378.75 C 500.69132 375.99926 502.02784 375 503.93359 375 C 506.50583 375 510.4969 373.12012 515.05078 369.76367 C 516.74356 368.51597 517.55962 366.70416 517.95312 363.32031 L 518.5 358.61133 L 528.5 356.85742 C 551.19421 352.87629 567.87271 342.50655 570.89648 330.49805 C 571.07391 329.79344 571.21177 329.20984 571.34375 328.64258 C 571.64445 327.52904 571.73641 326.37671 571.89648 325.23828 C 572.49879 320.95455 573.42969 312.35156 573.42969 312.35156 C 573.60766 310.85574 574.36498 309.06653 575 307.25977 C 577.95941 298.83973 577.64995 295.49794 573.42969 290.34766 C 569.50064 285.55276 568 281.50451 568 275.69141 C 568 270.43809 567.02429 268.9865 559.52344 263.0918 C 555.93546 260.27212 553.00287 257.41066 553.00586 256.73242 C 553.01606 254.18937 557.80459 249.71736 567.48438 243.21094 C 579.20365 235.33365 582 231.7876 582 224.80273 C 582 214.83986 576.06808 209.5 565 209.5 C 559.61534 209.5 557.64206 210.00318 553.5 212.43164 C 544.18615 217.89226 537.04607 226.85358 523.29883 250.33594 C 520.77539 254.64634 518.16061 258.38519 517.49023 258.64258 C 516.81986 258.89985 514.34289 258.10437 511.98438 256.875 C 509.62584 255.64567 505.38566 254.44684 502.5625 254.21289 C 486.22462 252.85801 472.59637 272.6035 474.40234 295.01172 L 475.00781 302.52344 L 470.94531 305.01172 C 466.55751 307.69919 463.94573 311.29866 462.01953 317.32031 C 461.02892 320.41707 459.50885 321.96894 454 325.5 C 445.71441 330.81092 444.65137 333.26219 445.15234 345.89258 L 445.5 354.66016 L 436.5 361.53516 C 424.93827 370.36716 421.29171 372.09867 414.18945 372.12891 C 406.88691 372.15911 401.87506 369.96426 390.45703 361.74023 C 385.48351 358.158 378.05854 353.06855 373.95703 350.42969 C 365.13097 344.75099 359 339.99368 359 338.82422 C 359 338.36183 360.91251 337.22769 363.25 336.30469 C 370.82871 333.31202 390.33143 323.2019 396.95898 318.83008 C 405.32901 313.30879 416.03977 303.1714 419.96484 297.05469 C 421.66952 294.39821 423.89277 289.23304 424.90625 285.57812 C 427.15435 277.47076 428.72148 275.64881 436.84766 271.68359 C 446.44611 266.99997 452.16924 258.50495 450.41992 251.53516 C 449.59436 248.24587 444.52561 244 441.42383 244 C 438.37356 244 438.39311 243.192 441.61523 236.18555 C 448.68972 220.80223 454.7317 202.37338 457.95703 186.3418 C 460.66945 172.85997 460.66965 156.23049 457.95898 150.5 C 457.1223 148.05913 456.13226 145.8762 456.11328 142.9375 C 456.09598 140.26249 457.55196 136.77586 461.11133 130.91602 C 473.96554 109.75392 478.43251 95.465263 477.81055 77.509766 L 477.5 68.521484 L 470.5 67.191406 C 457.50243 64.721836 437.19218 67.015463 414.55859 73.511719 L 402.61719 76.939453 L 395.55859 71.435547 C 355.6221 40.300559 342.64745 32.037834 319 22.673828 C 299.35122 14.893213 284.81124 10.813462 263 6.9628906 C 243.81735 3.5763659 223.63633 2.0055983 203.2168 2.1484375 z M 316.34375 494.86328 C 321.58159 494.95178 322.27478 498.22233 327.74414 514 C 334.18687 532.58549 339.9828 552.71944 339.99414 556.5625 C 340.00214 558.9865 335.93618 563.04512 331.00586 565.53711 C 329.08446 566.50826 324.81716 569.4857 321.52148 572.15234 C 318.22585 574.81899 315.29871 576.96087 315.01562 576.91211 C 314.73267 576.86351 311.62484 575.33359 308.10938 573.51367 C 304.59385 571.69375 298.18448 569.14755 293.86523 567.85352 L 286.01172 565.5 L 286.02148 561 C 286.05088 550.37681 290.06552 531.82451 296.31641 513.41016 C 302.40715 495.46855 301.81475 496.28609 309.24609 495.49023 C 312.34711 495.15815 314.5978 494.83377 316.34375 494.86328 z "
       transform="matrix(0.26458333,0,0,0.26458333,39.817425,51.517063)"
       id="path6024" />
    <path
       style="fill:#1e4ecf;stroke-width:1.00000012;fill-opacity:1"
       d="M 204.25586,5.3496094 C 226.73734,5.4534698 248.84349,7.5207202 269,11.632812 c 19.50232,3.978634 33.33543,8.081769 51,15.13086 46.56465,18.581767 85.31006,50.331491 109.99805,90.136718 2.75074,4.4351 5.00195,8.53668 5.00195,9.11328 0,0.57659 -2.36252,3.35111 -5.25,6.16602 -6.64898,6.4818 -4.72901,7.45546 2.72656,1.38281 3.3368,-2.71785 6.6157,-4.5625 8.11133,-4.5625 5.77096,0 10.87485,5.04996 14.03125,13.88281 0.62166,2.47836 0.95744,6.16897 1.87695,7.72266 2.68839,4.54253 1.01464,27.36279 -0.35937,34.39453 -3.23127,16.53702 -7.10154,31 -8.29492,31 -0.4842,0 -0.67196,-1.01251 -0.41797,-2.25 1.40821,-6.8637 1.49186,-29.23049 0.15039,-40.25 -2.55077,-20.95317 -5.87556,-25.98197 -13.56055,-20.50977 C 431.74418,154.60626 425,166.186 425,168.4668 c 0,0.32612 -3.22425,7.21647 -7.16406,15.3125 -9.38347,19.28235 -18.85277,35.15146 -23.31836,39.07226 -6.65106,5.83971 -13.35749,3.27986 -18.43555,-7.03515 -2.84508,-5.77917 -9.05532,-27.77366 -9.07422,-32.13868 -0.0278,-6.4462 -7.29597,-29.98871 -12.72851,-41.23046 C 345.92072,125.15053 331.33582,111.69018 314,105.27344 285.95012,94.890975 260.34198,113.55399 249.19922,152.5 c -3.86374,13.50452 -4.69833,20.56683 -4.67188,39.5 0.0258,18.08323 0.31268,20.54525 4.1836,35.76367 0.87651,3.44538 1.32901,6.52841 1.00586,6.85156 -0.32323,0.32319 -1.61706,-0.13258 -2.875,-1.01367 C 245.29302,232.51676 242.37821,232 237.8125,232 c -13.46756,0 -22.53339,5.44533 -27.95508,16.79102 -2.86358,5.99244 -3.20855,7.66992 -3.23047,15.70898 -0.0288,10.56937 1.71745,16.68072 7.71485,27 5.55548,9.55888 22.34188,26.13573 34.88867,34.45508 6.48979,4.30318 9.31809,6.7207 8.49805,7.25781 -0.67612,0.44296 -5.27851,0.52892 -10.22852,0.19141 -14.72353,-1.00411 -41.14008,2.08602 -61.11523,7.14843 -27.81783,7.05003 -59.82254,23.30683 -88.505864,44.95899 L 93.257812,389 92.621094,382.25 c -0.351073,-3.71255 -0.207416,-12.62413 0.320312,-19.80273 3.179248,-43.24691 19.491284,-77.98723 52.878904,-112.62305 l 5.47071,-5.67578 -3.39454,-2.08399 c -5.27648,-3.23569 -16.2511,-6.26261 -29.39648,-8.11133 -11.17944,-1.57216 -45.608658,-1.61468 -59,-0.0723 -16.454143,1.89524 -37.678544,5.75438 -48.324219,8.78711 -2.9282829,0.83406 -5.4771269,1.36205 -5.6640622,1.17383 -0.186943,-0.18841 0.6339926,-2.6011 1.8242187,-5.36133 C 16.776891,216.58623 44.107273,182.62348 70,160.60938 c 26.897167,-22.86808 52.71426,-37.01972 78.75,-43.16797 3.9875,-0.94163 7.25,-2.00961 7.25,-2.37305 0,-0.36343 -1.9985,-3.90296 -4.44141,-7.86524 C 137.81418,84.910339 119.3873,68.293471 93.697266,55.023438 82.738272,49.362631 80.642131,48.49952 64.681641,43.072266 c -4.300218,-1.462262 -7.900221,-3.089174 -8,-3.615235 C 56.362429,37.774076 84.091971,24.615214 96,20.798828 128.27401,10.455386 166.78672,5.1765087 204.25586,5.3496094 Z"
       transform="matrix(0.26458333,0,0,0.26458333,39.817425,51.517063)"
       id="path6022" />
    <path
       style="fill:#000000;stroke-width:1.00000012"
       d="m 208.12695,32.074219 c -2.59525,0.02926 -3.91651,0.335697 -4.68164,0.970703 -1.98978,1.65137 -8.78238,15.003249 -10.40625,20.455078 -4.34249,14.579059 -6.00107,25.791166 -6.02148,40.701172 -0.0179,13.032798 1.12243,21.139888 3.67773,26.142578 0.79867,1.56361 1.65557,2.63935 1.9043,2.39063 0.24873,-0.24874 -0.0612,-4.81154 -0.68945,-10.13868 -1.8417,-15.616076 -0.71168,-40.054832 2.39843,-51.837888 3.40344,-12.894397 7.20691,-21.125626 11.50391,-24.898437 3.14862,-2.764513 3.98021,-3.022373 7.97656,-2.474609 6.18631,0.847925 21.18254,6.112991 30.50977,10.710937 8.34051,4.111555 17.80371,10.310087 26.70117,17.492188 9.02918,7.288425 13.75364,10.413713 15.67969,10.373047 1.30968,-0.02765 0.41876,-1.30024 -3.17969,-4.542969 -26.92237,-24.261022 -45.18775,-33.531964 -69.17188,-35.107422 -2.62862,-0.17267 -4.64401,-0.253885 -6.20117,-0.236328 z"
       transform="matrix(0.26458333,0,0,0.26458333,39.817425,51.517063)"
       id="path6020" />
    <path
       style="fill:#000000;stroke-width:1.00000012"
       d="m 214.41016,47.035156 c -6.80498,-0.116012 -11.84364,33.792536 -7.85938,52.890625 0.85215,4.084679 1.77872,7.797179 2.0586,8.249999 0.70534,1.14131 2.14535,1.02988 2.92187,-0.22656 1.17451,-1.9004 15.76239,-12.990907 23.11914,-17.576173 8.13385,-5.069601 19.05667,-9.550178 27.59961,-11.322266 3.16248,-0.656009 5.75,-1.733839 5.75,-2.394531 0,-5.122908 -18.26849,-18.012735 -35,-24.695312 -6.03811,-2.41163 -15.31622,-4.869958 -18.58984,-4.925782 z"
       transform="matrix(0.26458333,0,0,0.26458333,39.817425,51.517063)"
       id="path6018" />
    <path
       style="fill:#e8ba73;stroke-width:1.00000012;fill-opacity:1"
       d="m 216.64648,50.296875 c 1.3525,0.03007 3.79009,0.824197 9.09961,2.607422 12.7882,4.294964 24.14972,10.38995 31.04297,16.652344 5.6538,5.136396 6.23584,7.420107 1.90235,7.46875 -4.59043,0.05152 -18.36857,5.601336 -27.37696,11.029297 -2.0979,1.264069 -7.28942,4.920392 -11.53711,8.123046 C 215.52964,99.380393 211.83818,102 211.57422,102 c -0.95336,0 -2.57421,-7.657485 -3.17383,-15 -0.94691,-11.595175 2.3013,-30.137413 6.2168,-35.492188 0.5819,-0.795796 0.97735,-1.234322 2.02929,-1.210937 z"
       transform="matrix(0.26458333,0,0,0.26458333,39.817425,51.517063)"
       id="path6016" />
    <path
       style="fill:#1e4ecf;stroke-width:1.00000012;fill-opacity:1"
       d="m 460.94336,68.037109 c 3.20375,-0.01483 6.09413,0.112242 8.40039,0.400391 7.84781,0.980515 8.39648,2.286638 6.78516,16.148438 -1.86834,16.073132 -7.31059,31.187002 -15.875,44.085942 -1.94563,2.93032 -3.81006,5.32163 -4.14453,5.31445 -0.33464,-0.007 -2.47515,-1.99892 -4.75586,-4.42774 -2.94845,-3.13988 -5.08455,-4.50999 -7.39063,-4.73828 -2.89107,-0.28618 -3.79953,-1.24372 -8.36523,-8.82031 -2.81723,-4.675 -8.49117,-12.95151 -12.60938,-18.392578 -11.46002,-15.141249 -14.02696,-18.970558 -13.22461,-19.728516 0.94288,-0.890702 9.15896,-3.394961 21.23633,-6.470703 7.90469,-2.013077 20.33211,-3.326615 29.94336,-3.371094 z"
       transform="matrix(0.26458333,0,0,0.26458333,39.817425,51.517063)"
       id="path6014" />
    <path
       style="fill:#ffffff;stroke-width:1.00000012"
       d="m 299.18164,106.11914 c 8.38458,0.14103 15.89702,2.50535 25.58984,7.91406 21.07061,11.75769 30.5982,29.90152 41.64844,79.30078 4.0927,18.29609 7.34943,26.32176 12.60547,31.07032 3.93407,3.55415 10.0895,5.32895 14.08594,4.06054 2.15558,-0.68417 2.18518,-0.57024 1.56055,6.16797 -1.10366,11.90563 1.4722,16.36091 7.5625,13.07813 8.00869,-4.31687 11.84637,-15.43492 12.66796,-36.71094 l 0.59766,-15.5 5.68164,-10 c 3.12491,-5.49999 6.86014,-12.97486 8.30078,-16.61133 1.44068,-3.63648 3.92067,-7.85839 5.50977,-9.38086 5.70981,-5.47034 8.183,-1.12016 10.07031,17.70508 2.02953,20.24438 -0.9648,43.52261 -7.6543,59.5 -2.68951,6.42369 -3.0429,6.69498 -10.17578,7.80469 -2.34761,0.36525 -8.42266,2.77646 -13.5,5.35742 -8.56641,4.35458 -9.55665,4.63104 -13.73242,3.84766 -5.63913,-1.05797 -18.07019,-0.20081 -24,1.65429 -2.47499,0.77428 -9.38293,3.27222 -15.35156,5.55078 -5.96859,2.27861 -13.98654,4.80178 -17.81641,5.60743 -14.39331,3.0277 -30.52214,1.08969 -48.4043,-5.81641 -26.37887,-10.18753 -36.95077,-19.31948 -42.90625,-37.06055 -3.59361,-10.70521 -4.87786,-21.95161 -4.24218,-37.1582 1.13333,-27.11151 10.17596,-52.97703 23.66797,-67.70117 8.1863,-8.9339 14.32411,-12.06616 24.71093,-12.61133 0.61746,-0.0324 1.22852,-0.0556 1.83399,-0.0664 0.56763,-0.0101 1.13048,-0.0113 1.68945,-0.002 z"
       transform="matrix(0.26458333,0,0,0.26458333,39.817425,51.517063)"
       id="path6012" />
    <path
       style="fill:#000000;stroke-width:1.00000012"
       d="m 301.42383,151.95312 c -2.38951,-0.0854 -5.31361,0.84485 -7.04688,2.57813 -7.66068,7.66069 -14.37197,33.47092 -14.375,55.27539 -0.002,12.51228 1.20477,18.96439 4.13477,22.10938 2.98012,3.19876 6.15165,2.61288 10.2168,-1.88672 7.32385,-8.10664 12.48749,-22.49801 14.7207,-41.0293 1.63139,-13.53751 -0.47633,-31.06747 -4.29883,-35.75 -0.67627,-0.82843 -1.91786,-1.24564 -3.35156,-1.29688 z"
       transform="matrix(0.26458333,0,0,0.26458333,39.817425,51.517063)"
       id="path6010" />
    <path
       style="fill:#ffffff;stroke-width:1.00000012"
       d="m 296.14844,163.25586 c 0.39077,0.0379 0.80925,0.29457 1.30859,0.70898 1.18742,0.98539 1.53843,3.38184 1.51953,10.40821 -0.0276,10.55654 -1.06145,15.92324 -3.76562,19.54883 -2.31855,3.10857 -4.98453,3.82938 -5.84766,1.58007 -1.2641,-3.2942 0.39384,-18.94952 2.64844,-25.00195 2.04854,-5.49933 2.96441,-7.35777 4.13672,-7.24414 z"
       transform="matrix(0.26458333,0,0,0.26458333,39.817425,51.517063)"
       id="path6008" />
    <path
       style="fill:#ffffff;stroke-width:1.00000012"
       d="m 566.52734,212.02148 c 7.74615,-0.0338 11.41884,3.558 12.92774,12.64258 l 0.6914,4.16406 -12.32226,10.51172 c -6.77787,5.78147 -13.79597,12.44031 -15.5957,14.79688 -2.96795,3.88615 -3.6319,4.25795 -7.12305,4.00586 -5.06147,-0.36544 -9.44198,1.56541 -16.38281,7.21875 -3.13191,2.55099 -6.15121,4.63867 -6.70899,4.63867 -2.92547,0 0.44753,-14.27456 5.76563,-24.4043 10.89781,-20.7578 25.62205,-33.51677 38.74804,-33.57422 z"
       transform="matrix(0.26458333,0,0,0.26458333,39.817425,51.517063)"
       id="path6006" />
    <path
       style="fill:#ffffff;stroke-width:1.00000012"
       d="m 405.37305,215.83984 c 0.31585,-0.0241 0.59597,0.13973 0.81836,0.53711 0.53877,0.96269 0.47447,3.15161 -0.16211,5.51563 -0.58035,2.15531 -1.9168,4.9741 -2.96875,6.26367 -1.72933,2.11994 -1.97701,2.17606 -2.59375,0.5918 -1.29936,-3.33768 2.69524,-12.73961 4.90625,-12.90821 z"
       transform="matrix(0.26458333,0,0,0.26458333,39.817425,51.517063)"
       id="path6004" />
    <path
       style="fill:#ffe6b4;stroke-width:1.00000012;fill-opacity:1"
       d="m 234.375,235.85742 c 8.38983,0.1002 16.74722,3.78544 32.19336,14.19531 14.69972,9.90683 33.73676,17.95501 48.61328,20.55079 16.69674,2.91341 31.78098,0.89199 45.83984,-6.14258 11.6589,-5.8337 29.78804,-9.11168 36.29688,-6.5625 l 2.81641,1.10351 -2.03321,2.85352 c -2.65651,3.73077 -3.53866,9.93072 -1.87109,13.14453 2.30506,4.44238 7.16825,6.07557 17.55273,5.89453 5.10565,-0.089 9.55122,0.10592 9.87891,0.43359 1.05876,1.05876 -6.34909,15.01632 -10.82031,20.38672 -15.50914,18.62812 -47.63903,34.28605 -79.33789,38.66407 -11.50889,1.58951 -27.3503,1.82832 -35.91993,0.54101 -48.44216,-7.27695 -92.47799,-48.34485 -86.74414,-80.89648 2.68466,-15.24102 11.51546,-24.30964 23.53516,-24.16602 z"
       transform="matrix(0.26458333,0,0,0.26458333,39.817425,51.517063)"
       id="path6002" />
    <path
       style="fill:#ffffff;stroke-width:1.00000012"
       d="m 431.10742,252.63281 c 2.55626,-0.0142 4.45193,0.51104 4.6836,1.63867 0.52565,2.55871 -5.66916,8.32297 -10.3379,9.61914 -4.8241,1.33924 -10.43815,1.40434 -12.43359,0.14258 -2.21786,-1.40239 1.46494,-5.97137 7.09375,-8.79882 3.32946,-1.67247 7.70752,-2.58333 10.99414,-2.60157 z"
       transform="matrix(0.26458333,0,0,0.26458333,39.817425,51.517063)"
       id="path6000" />
    <path
       style="fill:#ffffff;stroke-width:1.00000012"
       d="m 500.44336,256.49023 c 3.63742,-0.0313 7.42198,0.6002 10.31445,1.90235 4.54885,2.04782 4.65909,2.3167 5.60352,13.70703 0.31098,3.75095 1.66195,7.98162 4.09179,12.80664 4.49587,8.92762 5.96934,15.72624 4.05274,18.69336 C 522.75303,306.3132 517.05892,309 513.05859,309 c -4.5705,0 -10.38902,-3.33839 -14.33984,-8.22656 -4.26894,-5.28178 -5.59184,-7.77534 -7.8418,-14.77344 l -1.76953,-5.5 -0.0527,5.93359 c -0.0695,7.67324 2.40597,12.80758 10.05664,20.84766 5.70508,5.99543 6.82866,7.71875 5.02734,7.71875 -1.97983,0 -8.80078,6.37686 -10.87109,10.16406 -3.49599,6.39557 -1.63912,6.38726 3.68945,-0.0156 5.28272,-6.34783 9.95315,-9.14844 15.25586,-9.14844 3.25296,0 3.46845,0.22987 4.6875,4.98633 1.32692,5.17731 4.96325,9.23182 10.04297,11.19922 1.40602,0.54455 6.04479,1.14009 10.30859,1.32226 5.80237,0.24805 8.63857,0.88011 11.27539,2.50977 3.53209,2.18302 6.99563,2.04936 6.23243,-0.24024 C 554.53572,335.10529 553.29347,334.30539 552,334 c -3.82061,-0.90195 -3.39825,-2.63139 1.46094,-5.97461 5.4751,-3.76694 8.53906,-6.91192 8.53906,-8.76562 0,-0.82258 -2.47527,0.39198 -6.25,3.06445 C 546.41457,328.93359 543.81143,330 537.01758,330 c -10.63272,0 -17.47266,-4.71687 -17.47266,-12.05078 0,-4.83111 1.60317,-6.54908 10.95508,-11.73633 3.85002,-2.13547 9.4364,-5.41841 12.41406,-7.29687 4.25227,-2.68252 6.41705,-3.40051 10.08985,-3.34571 8.33933,0.1242 16.08005,6.88554 18.60156,16.25 0.0905,0.33628 0.2302,0.57352 0.25781,0.87696 0.43722,4.80594 -1.50976,14.39843 -1.50976,14.39843 -0.087,0.82998 -0.85541,1.59101 -1.42383,2.72852 -3.75217,7.50875 -10.71054,13.8518 -20.40235,18.59961 -9.71739,4.76028 -17.65742,6.57957 -28.67187,6.56445 -13.17593,-0.0167 -21.29809,-2.44072 -29.77149,-8.88281 -2.89073,-2.19776 -3.25126,-2.29018 -2.34179,-0.60156 2.61796,4.86077 10.97995,9.86449 21.60156,12.92382 5.56902,1.60404 5.81676,1.80937 5.2168,4.37696 -0.34628,1.48199 -2.13799,4.11656 -3.98047,5.85351 -2.80343,2.64291 -4.43649,3.27446 -10.00781,3.8711 -3.66154,0.39231 -8.43853,0.42814 -10.61524,0.0801 C 487.69381,372.24731 486,372.37983 486,372.91992 c 0,0.93869 0.98569,1.33432 6.25,2.50586 3.86491,0.86015 3.43974,2.0845 -1.78516,5.14649 -9.4992,5.5669 -20.67967,2.29819 -31.42578,-9.18946 -13.24002,-14.15361 -15.62603,-29.82987 -6.16406,-40.49219 3.37682,-3.80521 4.0685,-4.18317 5.49414,-3 0.89707,0.7445 1.63894,2.31033 1.64648,3.48047 0.0211,2.92241 1.5166,5.03489 2.94141,4.1543 0.8301,-0.51307 0.97511,-2.6404 0.49024,-7.16797 -0.83811,-7.82615 1.15128,-14.00082 5.75781,-17.87695 4.61348,-3.88199 5.9404,-3.0013 8.3164,5.52539 1.85481,6.65647 5.18227,13.62433 6.07813,12.72852 0.18032,-0.18036 -0.35274,-2.55693 -1.18359,-5.28126 -4.91649,-16.12111 -6.23297,-37.72362 -2.97071,-48.72851 2.01086,-6.78342 6.68115,-13.31012 11.56446,-16.16211 2.3059,-1.3467 5.79617,-2.04092 9.43359,-2.07227 z"
       transform="matrix(0.26458333,0,0,0.26458333,39.817425,51.517063)"
       id="path5998" />
    <path
       style="fill:#ffffff;stroke-width:1.00000012"
       d="m 547.33984,262.01172 c 2.76284,-0.0452 5.42616,0.4108 7.8086,1.40625 4.07928,1.70445 5.90516,3.66602 8.83203,9.48437 l 2.21484,4.40235 -7.98437,-0.66602 c -11.9271,-0.99469 -17.42709,0.5063 -23.74805,6.48438 C 531.62715,285.805 528.539,288 527.60156,288 c -1.02039,0 -2.32398,-1.48493 -3.25,-3.70117 -2.20974,-5.28866 -0.56483,-10.0602 5.22461,-15.15625 5.1243,-4.51058 11.68543,-7.03137 17.76367,-7.13086 z"
       transform="matrix(0.26458333,0,0,0.26458333,39.817425,51.517063)"
       id="path5996" />
    <path
       style="fill:#000000;stroke-width:1.00000012"
       d="m 254.41406,264.45898 c -6.28206,0.037 -13.60784,4.14862 -16.99023,10.68946 -1.95727,3.78485 0.2107,3.93917 3.65234,0.25976 4.82544,-5.1589 5.45753,-5.00228 8.81836,2.17969 6.30225,13.46755 22.68241,25.42363 39.60547,28.9082 6.75077,1.39023 18.13171,1.37325 21.75,-0.0312 3.74683,-1.45443 1.42507,-2.46484 -5.66211,-2.46484 -16.69338,0 -31.53426,-5.05347 -40.92578,-13.93555 -5.2238,-4.94048 -10.12296,-13.12548 -10.8125,-18.06445 -0.30667,-2.19651 0.0145,-2.49394 2.65039,-2.45312 1.65003,0.0255 4.01247,0.39241 5.25,0.8164 2.88276,0.98771 2.94028,-0.64344 0.11523,-3.27539 -1.95507,-1.82144 -4.59568,-2.64571 -7.45117,-2.62891 z"
       transform="matrix(0.26458333,0,0,0.26458333,39.817425,51.517063)"
       id="path5994" />
    <path
       style="fill:#ffffff;stroke-width:1.00000012"
       d="m 552.03711,281.11328 c 2.20793,0.0216 4.47864,0.29113 6.75781,0.83789 9.10001,2.18309 16.13154,10.59877 15.05078,18.01367 -0.52735,3.61845 -2.27213,3.47507 -5.25195,-0.43164 -3.15349,-4.13446 -6.80144,-6.22313 -12.44141,-7.125 -6.30833,-1.00875 -10.50363,0.27374 -16.74609,5.1211 -7.45175,5.78626 -9.40625,5.85653 -9.40625,0.33789 0,-9.75594 10.11429,-16.87036 22.03711,-16.75391 z"
       transform="matrix(0.26458333,0,0,0.26458333,39.817425,51.517063)"
       id="path5992" />
    <path
       style="fill:#1e4ecf;stroke-width:1.00000012;fill-opacity:1"
       d="m 253.36328,339.05664 c 4.64395,-0.0208 10.3004,1.0599 18.0957,2.93359 6.8422,1.64463 15.16286,3.10714 18.49024,3.25 3.32738,0.14302 6.05055,0.31636 6.05078,0.38477 2.3e-4,0.0684 -3.17846,2.54183 -7.06445,5.49609 -11.269,8.56717 -19.19492,20.68037 -22.64453,34.61133 l -1.79102,7.23242 -5.5,2.18164 c -8.10886,3.21612 -8,3.04215 -8,12.75391 0,6.21502 -0.43881,9.28101 -1.55664,10.87695 -2.30997,3.29794 -6.19928,2.77567 -13.51172,-1.81445 -10.76868,-6.75965 -14.63308,-8.24604 -20.08008,-7.72266 -4.26305,0.40963 -4.85156,0.23501 -4.85156,-1.43554 0,-3.04475 9.16537,-11.36123 16.62891,-15.08985 3.77918,-1.88802 11.37108,-5.3729 16.87109,-7.74414 15.26869,-6.58288 22.89099,-11.83616 25.95898,-17.89062 1.39718,-2.75713 2.53912,-6.7161 2.53711,-8.79688 C 272.98876,350.87291 267.01173,345 259.47656,345 c -4.60002,0 -16.43733,3.9571 -25.75976,8.61133 L 226.5,357.21484 230,353.375 c 9.32231,-10.22403 14.49756,-14.27864 23.36328,-14.31836 z"
       transform="matrix(0.26458333,0,0,0.26458333,39.817425,51.517063)"
       id="path5990" />
    <path
       style="fill:#ffe6b4;stroke-width:1.00000012;fill-opacity:1"
       d="m 351.46484,342.74805 c 0.77946,-0.0213 2.03088,0.22123 3.70118,0.81054 5.2185,1.84124 9.1298,4.24554 20.33398,12.4961 11.46573,8.4432 24.64838,16.29911 30.78516,18.34765 10.08926,3.36794 15.95865,1.87695 27.21484,-6.91796 5.84493,-4.56688 11.40041,-7.96147 11.96484,-7.3086 0.15398,0.17805 0.98544,1.71323 1.84766,3.41016 0.86226,1.69689 3.56888,5.53977 6.01367,8.54101 l 4.44531,5.45703 -7.03125,5.92188 c -10.20687,8.59684 -14.65873,11.65196 -19.86718,13.63281 -6.4687,2.4601 -13.42835,3.00139 -19.87305,1.54688 -7.40243,-1.67071 -22,-7.64352 -22,-9.00196 0,-2.70602 -9.43954,-20.10163 -14.01953,-25.83593 -5.31039,-6.6488 -14.83601,-14.70876 -21.26563,-17.99219 -3.39759,-1.7351 -3.9648,-3.06046 -2.25,-3.10742 z"
       transform="matrix(0.26458333,0,0,0.26458333,39.817425,51.517063)"
       id="path5988" />
    <path
       style="fill:#ffe6b4;stroke-width:1.00000012;fill-opacity:1"
       d="m 337.62891,344.75391 c 5.89603,0.057 7.53329,0.60835 11.83984,2.58984 3.28244,1.5103 8.33502,4.53219 11.22852,6.7168 10.41645,7.86448 21.27372,25.58346 25.39257,41.43945 2.68094,10.32049 2.89699,26.27905 0.48047,35.5 -6.04887,23.08131 -24.48624,41.33003 -46.36914,45.89453 -9.56666,1.99548 -31.23715,0.67402 -35.86719,-2.1875 -0.5769,-0.35656 -1.28105,-4.39183 -1.5664,-8.9668 -0.64891,-10.40088 -3.60179,-16.65946 -11.97461,-25.3789 -5.50171,-5.72946 -5.85704,-6.37291 -4.70508,-8.52539 0.6853,-1.28047 1.24609,-5.56443 1.24609,-9.52149 0,-6.06705 -0.4998,-8.21043 -3.1875,-13.66992 -3.00559,-6.10522 -6.47319,-10.02835 -12.16992,-13.77148 l -2.47656,-1.62696 1.77344,-6.8164 c 4.21617,-16.20733 14.02959,-30.11348 25.60156,-36.28125 7.01401,-3.73845 15.10651,-5.01084 33.94141,-5.33399 1.4942,-0.0256 2.81959,-0.0461 4.0039,-0.0566 1.03628,-0.009 1.96631,-0.012 2.8086,-0.004 z"
       transform="matrix(0.26458333,0,0,0.26458333,39.817425,51.517063)"
       id="path5986" />
    <path
       style="fill:#ffe6b4;stroke-width:1.00000012;fill-opacity:1"
       d="m 257.51367,350.34375 c 5.43048,0.0369 9.85823,2.25407 10.30664,5.41211 0.57253,4.03211 -4.27555,12.83372 -8.98242,16.30469 -4.32933,3.1926 -16.57639,9.2871 -30.92578,15.39062 -11.35639,4.83043 -18.4077,9.87562 -20.84961,14.91992 -2.78137,5.74557 -2.62946,7.90252 1.40234,19.95313 4.1655,12.45022 3.8612,14.61171 -3.21875,22.95312 -2.61055,3.07571 -4.99208,5.62419 -5.29297,5.65821 -1.65329,0.19721 -8.23472,-8.32212 -10.76562,-13.93555 -1.61185,-3.57502 -4.29182,-9.44962 -5.95703,-13.05469 -7.63224,-16.52322 -7.09372,-24.65866 2.31055,-34.8164 6.52569,-7.04852 12.24342,-10.83241 36.00781,-23.83399 21.89308,-11.97777 26.65308,-14.08033 33.58398,-14.83008 0.80801,-0.0874 1.60508,-0.12636 2.38086,-0.12109 z"
       transform="matrix(0.26458333,0,0,0.26458333,39.817425,51.517063)"
       id="path5984" />
    <path
       style="fill:#ffffff;stroke-width:1.00000012"
       d="m 265.41211,398.18164 c 3.72556,0.0114 7.60541,1.99018 11.5293,5.91406 6.52089,6.52086 8.96134,16.63121 6.10156,25.2793 l -1.28125,3.87695 -6.47656,-0.66406 c -7.86501,-0.80583 -8.44299,1.2073 -0.89063,3.10156 12.77031,3.20304 21.9742,13.80476 24.61133,28.34766 4.70884,25.9677 -15.06943,55.46475 -40.80469,60.85351 -9.45883,1.98063 -19.084,0.52376 -27.63476,-4.18164 -3.85906,-2.1236 -4.08131,-2.50227 -4.36719,-7.44336 -0.16567,-2.86328 0.17428,-6.09495 0.75586,-7.18164 1.45927,-2.7267 4.94708,-1.39899 12.59961,4.79297 6.42708,5.20037 11.42883,8.12305 13.89648,8.12305 2.73048,0 1.66166,-1.78051 -2.20117,-3.66797 -2.06249,-1.00781 -3.65264,-2.27301 -3.5332,-2.8125 0.11935,-0.53949 3.82693,-1.49664 8.23828,-2.12695 7.00826,-1.00135 14.03709,-3.7344 12.79687,-4.97461 -0.23176,-0.23176 -4.8031,0.49499 -10.1582,1.61328 -9.99583,2.0874 -14.64777,1.93858 -19.72852,-0.63086 C 235.73439,504.81707 228,496.27927 228,494.40625 c 0,-0.72189 1.21816,-2.12123 2.70703,-3.10937 17.522,-11.62954 26.98318,-39.43717 20.23438,-59.47071 l -2.0586,-6.10937 3.3086,-3.41797 c 3.19434,-3.29968 3.30859,-3.6983 3.30859,-11.56641 v -8.15039 l 3.39844,-2.29101 c 2.09891,-1.41537 4.27833,-2.11622 6.51367,-2.10938 z"
       transform="matrix(0.26458333,0,0,0.26458333,39.817425,51.517063)"
       id="path5982" />
    <path
       style="fill:#ffffff;stroke-width:1.00000012"
       d="m 218.03125,413.00781 c 0.36784,-0.0111 0.7426,-0.01 1.12305,0.004 1.82613,0.0653 3.77697,0.41664 5.64648,1.06836 4.23812,1.47742 6.71898,7.00799 8.80664,19.63672 2.17501,13.15691 3.79631,12.46719 3.18164,-1.35352 -0.28879,-6.49326 -0.09,-10.36328 0.53125,-10.36328 2.36988,0 7.67916,5.3578 10.07617,10.16797 2.16201,4.33859 2.60352,6.60253 2.60352,13.34765 0,17.99082 -9.92231,36.28046 -23.29688,42.94532 -6.36453,3.17159 -13.32245,3.3032 -19.95312,0.3789 -6.82261,-3.00892 -6.07187,-5.79437 1.58203,-5.87109 3.05703,-0.0307 3.09778,-0.0871 1.16797,-1.58398 -1.6217,-1.25806 -3.64336,-1.42803 -10.68555,-0.89844 -9.35296,0.70337 -11.24291,0.20078 -16.03711,-4.26953 -6.27551,-5.85158 -7.68408,-22.81323 -2.82031,-33.9668 2.43742,-5.58947 3.09915,-6.09309 5,-3.80273 0.86211,1.03876 1.0018,4.0048 0.49414,10.49414 -0.84849,10.84633 -0.0344,12.57781 5.42969,11.55273 11.96166,-2.24402 20.85165,-11.69442 24.62305,-26.17383 2.32647,-8.93189 2.04335,-10.79955 -2.00391,-13.1875 -4.03039,-2.37796 -4.27097,-3.36185 -1.5,-6.13281 1.23504,-1.23505 3.45635,-1.91457 6.03125,-1.99219 z"
       transform="matrix(0.26458333,0,0,0.26458333,39.817425,51.517063)"
       id="path5980" />
    <path
       style="fill:#1e4ecf;stroke-width:1.00000012;fill-opacity:1"
       d="m 175.03711,421.15234 c 0.36979,-0.0189 0.66075,0.32547 1,0.85547 3.41902,5.34153 2.91992,10.61645 -2.44727,25.83789 -1.81803,5.156 -2.58984,9.38484 -2.58984,14.1836 0,5.98102 -0.25035,6.90793 -2,7.40429 -1.1,0.31208 -2.8976,0.81981 -3.99414,1.13086 -1.51958,0.43094 -1.84984,0.19201 -1.38867,-1.00976 0.42883,-1.11742 0.16605,-1.40877 -0.9043,-0.99805 -2.24089,0.85992 -2.97539,-1.15159 -1.10351,-3.02344 1.98376,-1.9838 1.0471,-3.32299 -1.08594,-1.55273 -1.9843,1.64681 -1.94207,4.42726 0.0918,6.11523 1.43486,1.19082 1.18381,1.5315 -2.25,3.04883 -5.86541,2.59181 -6.21637,2.43302 -5.30664,-2.39453 1.79653,-9.53344 6.49645,-21.98744 13.11329,-34.75 5.94013,-11.45738 7.75586,-14.79106 8.86523,-14.84766 z"
       transform="matrix(0.26458333,0,0,0.26458333,39.817425,51.517063)"
       id="path5978" />
    <path
       style="fill:#000000;stroke-width:1.00000012"
       d="m 167.92969,461.14258 c -0.20918,-0.0146 -0.43906,-8.9e-4 -0.67969,0.0449 -1.80268,0.3436 -2.82914,3.86269 -1.86133,6.38477 0.72248,1.88273 2.05204,1.80559 3.73047,-0.2168 1.21305,-1.46166 1.11619,-1.56422 -0.87695,-0.93164 C 166.41286,467.00446 166,466.75317 166,465.06641 166,463.8954 166.65037,463 167.5,463 c 0.825,0 1.5,-0.48389 1.5,-1.07422 0,-0.44286 -0.44277,-0.73931 -1.07031,-0.7832 z"
       transform="matrix(0.26458333,0,0,0.26458333,39.817425,51.517063)"
       id="path5976" />
    <path
       style="fill:#1e4ecf;stroke-width:1.00000012;fill-opacity:1"
       d="m 353.54102,476.14453 c 0.26894,0.006 0.45898,0.24594 0.45898,0.63672 0,1.66738 -7.58035,6.27085 -15.19727,9.22852 -4.06359,1.57787 -11.86943,3.75572 -17.3457,4.83984 -5.47627,1.08416 -12.54451,2.26884 -15.70703,2.63281 -5.14734,0.59252 -5.74439,0.47083 -5.70508,-1.16015 0.0556,-2.29418 2.33831,-11.03949 3.07422,-11.77539 0.30263,-0.30263 2.7636,0.1316 5.4668,0.96484 10.76145,3.31706 33.07576,0.67214 44.66406,-5.29297 0.10312,-0.0531 0.20137,-0.0762 0.29102,-0.0742 z"
       transform="matrix(0.26458333,0,0,0.26458333,39.817425,51.517063)"
       id="path5974" />
    <path
       style="fill:#1e4ecf;stroke-width:1.00000012;fill-opacity:1"
       d="m 343.03125,490.21484 c 1.75931,0.0494 3.77557,5.16874 5.41406,13.83985 0.87776,4.64538 4.45437,16.99533 7.94922,27.44531 9.21774,27.5619 10.84352,33.02402 10.44531,35.0918 -0.23429,1.2164 -2.92474,2.95067 -7.84765,5.05859 -4.12052,1.76436 -8.02192,3.24037 -8.66992,3.2793 -1.54534,0.0927 -4.54899,-8.10729 -7.30079,-19.92969 -3.82718,-16.44249 -7.06235,-28.02493 -12.13281,-43.4375 -2.7027,-8.21537 -4.57195,-15.24591 -4.15234,-15.625 0.41964,-0.37905 3.91369,-1.71241 7.76367,-2.96094 3.85002,-1.24856 7.53134,-2.46388 8.18164,-2.70312 0.11482,-0.0422 0.23232,-0.0619 0.34961,-0.0586 z"
       transform="matrix(0.26458333,0,0,0.26458333,39.817425,51.517063)"
       id="path5972" />
    <path
       style="fill:#1e4ecf;stroke-width:1.00000012;fill-opacity:1"
       d="m 298.80273,495.38672 c 0.18593,0.17813 -1.2505,4.80326 -3.72461,11.82031 -4.60209,13.05252 -7.72056,26.25649 -11.05078,46.79297 -4.35643,26.86496 -5.07954,30.41118 -6.36718,31.23047 -2.19024,1.39362 -20.55421,0.2075 -22.19532,-1.43359 -0.48268,-0.48269 1.66008,-11.66478 5.61524,-29.29688 1.96305,-8.75146 3.88344,-20.16926 3.90234,-23.19141 0.0166,-2.88461 0.61418,-3.50933 6.22852,-6.5 10.15438,-5.40907 22.57201,-18.3814 26.84375,-28.04297 0.44436,-1.00502 0.68607,-1.43828 0.74804,-1.3789 z"
       transform="matrix(0.26458333,0,0,0.26458333,39.817425,51.517063)"
       id="path5968" />
    <path
       style="fill:#1e4ecf;stroke-width:1.00000012;fill-opacity:1"
       d="m 221.63672,495.60352 c 0.5044,0.004 0.76421,0.2753 0.95312,0.76757 1.63154,4.25175 -7.28556,10.67393 -17.51172,12.61329 -8.3846,1.59007 -8.98503,1.2048 -3.13867,-2.01758 2.99136,-1.64878 6.14135,-3.61315 7,-4.36524 0.85866,-0.75205 4.14651,-2.81278 7.30664,-4.57812 3.0267,-1.69082 4.54995,-2.42658 5.39063,-2.41992 z"
       transform="matrix(0.26458333,0,0,0.26458333,39.817425,51.517063)"
       id="path5966" />
    <path
       style="fill:#ffffff;stroke-width:1.00000012"
       d="m 391.35547,546.86914 c 3.69433,0.0532 7.145,0.63415 9.64453,1.88281 7.58067,3.78698 9.88505,15.12007 6.04883,29.74805 -1.7085,6.51466 -1.85024,8.63539 -0.48828,7.27344 0.30788,-0.30788 1.32892,-2.71069 2.26953,-5.33985 0.94065,-2.62911 2.17353,-4.93407 2.74023,-5.12304 0.5667,-0.1889 2.90976,1.26409 5.20703,3.23047 9.59566,8.21351 7.13614,20.28074 -7.20312,35.33789 -10.89842,11.4441 -20.92877,17.715 -38.07422,23.80468 -8.26409,2.93522 -11.73591,3.62129 -20,3.95313 -11.58557,0.46533 -15.88265,-0.71063 -21.24414,-5.8125 -5.94338,-5.6555 -7.7523,-13.04993 -5.11914,-20.92578 1.62697,-4.8663 2.4418,-5.46218 5.3418,-3.91016 1.38527,0.7412 2.81288,1.05235 3.17382,0.69141 0.62389,-0.62389 -3.24979,-4.54107 -14.58203,-14.7461 -4.79387,-4.3172 -5.07018,-4.83576 -5.0664,-9.5 0.005,-6.12529 2.37163,-10.23314 8.16992,-14.17382 6.99692,-4.75529 16.60114,-9.51643 17.75586,-8.80274 2.28975,1.41513 1.01364,5.52168 -2.92969,9.42578 -2.19999,2.17814 -4,4.42805 -4,5 0,0.57192 1.84143,1.53661 4.0918,2.14258 5.59003,1.50524 11.31658,0.14701 26.26953,-6.22656 13.96222,-5.95132 18.53412,-8.57927 21.51367,-12.36719 4.27831,-5.439 1.52389,-7.38126 -7.22852,-5.0957 -5.76892,1.50648 -7.64648,0.92195 -7.64648,-2.38086 0,-4.39711 10.332,-7.8385 19.75977,-8.07617 0.53566,-0.0135 1.06794,-0.0174 1.5957,-0.01 z"
       transform="matrix(0.26458333,0,0,0.26458333,39.817425,51.517063)"
       id="path5964" />
    <path
       style="fill:#ffffff;stroke-width:1.00000012"
       d="m 250.44727,564.05273 c 4.50667,0.0644 4.2832,1.25097 2.39257,5.40039 -1.06684,2.34146 -1.67588,2.54688 -7.5332,2.54688 -6.90814,0 -12.97174,1.96132 -13.95117,4.51367 -1.03351,2.69337 4.22644,7.06754 11.28515,9.38477 25.30719,8.30778 66.80764,0.70611 47.10938,-8.62891 -4.80571,-2.27743 -5.60159,-3.81023 -3.76172,-7.24805 0.90592,-1.69277 1.38559,-1.73828 5.75,-0.54882 6.75054,1.83976 9.62145,3.07487 14.22461,6.12109 3.62778,2.40076 4.03919,3.08974 4.04297,6.78906 0.003,2.26439 0.48172,5.83509 1.06445,7.9336 1.78485,6.42761 0.39821,9.46918 -8.19726,17.97656 -5.11268,5.06033 -7.87217,8.56627 -7.86914,10 0.004,2.04983 0.22256,1.97457 3.05078,-1.04297 4.16621,-4.44518 5.58075,-4.16238 6.39648,1.27734 2.13014,14.20487 -6.31691,24.96702 -22.25,28.34766 -8.59842,1.82442 -31.25118,1.28718 -42.15039,-1 -26.63513,-5.58928 -40.92433,-17.6664 -35.69922,-30.17188 C 206.241,611.18108 210.84222,605 212.32031,605 c 0.59604,0 2.62966,1.46247 4.51758,3.25 l 3.43164,3.25 -0.62891,-3.35156 c -0.34656,-1.8429 -2.43298,-5.61163 -4.63476,-8.37696 -6.7148,-8.43344 -7.57344,-15.66628 -2.7168,-22.87304 5.1957,-7.7099 15.0345,-11.59055 31.96094,-12.60547 2.66679,-0.1599 4.69504,-0.26169 6.19727,-0.24024 z"
       transform="matrix(0.26458333,0,0,0.26458333,39.817425,51.517063)"
       id="path5962" />
    <path
       style="fill:#000000;stroke-width:1.00000012"
       d="m 485.5,580.05469 6.5,1.29687 c 12.37134,2.46713 26.39686,7.56713 41.72266,15.17188 2.62794,1.30401 5.00219,2.38124 5.27734,2.39258 1.7435,0.0727 -5.09083,-3.92415 -14.5,-8.47852 -11.86723,-5.74416 -23.45681,-9.2348 -33,-9.93945 z"
       transform="matrix(0.26458333,0,0,0.26458333,39.817425,51.517063)"
       id="path5960" />
    <path
       style="fill:#ffffff;stroke-width:1.00000012"
       d="m 428.11523,596 h 4.44141 c 2.44339,0 4.43528,0.3375 4.42774,0.75 -0.008,0.4125 -0.68398,3.59634 -1.50391,7.07422 -3.96439,16.8161 -4.12164,43.09885 -0.41211,69.17578 1.05626,7.425 1.92279,13.99325 1.92578,14.5957 0.003,0.60242 -3.97476,2.28993 -8.83984,3.75 -8.91455,2.67538 -13.64055,3.29344 -14.50391,1.89649 -0.94329,-1.52629 -3.55309,-16.00159 -4.58789,-25.45313 -1.20204,-10.97794 -1.29829,-29.84509 -0.20703,-40.28906 0.72007,-6.89136 0.87564,-7.19009 9.99609,-19.25 z"
       transform="matrix(0.26458333,0,0,0.26458333,39.817425,51.517063)"
       id="path5958" />
    <path
       style="fill:#be0808;stroke-width:1.00000012;fill-opacity:1"
       d="m 446.15234,597.76562 c 0.26868,-9.9e-4 0.55098,0.007 0.84766,0.0195 14.09737,0.60892 26.68053,1.86495 37.88086,3.78125 4.60955,0.78867 8.57313,1.43359 8.80859,1.43359 0.23509,0 0.19103,0.38492 -0.0996,0.85547 -0.29083,0.46953 0.46863,0.66849 1.68946,0.43945 1.22086,-0.22892 4.92068,0.32444 8.2207,1.23047 3.29998,0.90607 7.35001,2.0063 9,2.44336 7.63816,2.02329 13.98233,4.60599 26.25,10.69141 7.2875,3.615 13.25,6.94004 13.25,7.38867 0,0.44867 0.78751,1.0751 1.75,1.39258 2.47003,0.81441 8.80494,6.61228 8.47461,7.75586 -0.15111,0.52346 0.15602,0.68599 0.68164,0.36132 0.52562,-0.32485 1.2398,-0.12959 1.58789,0.4336 0.75039,1.21413 -1.12276,3.24089 -5.2793,5.71289 -11.15962,6.63696 -22.66454,12.77243 -29.21484,15.57812 -1.92503,0.82454 -6.64998,2.8588 -10.5,4.52149 -7.57482,3.27129 -21.85451,8.15413 -38.5,13.16601 -5.77497,1.73881 -11.73747,3.55806 -13.25,4.04297 -1.51249,0.48507 -2.75,0.6686 -2.75,0.40821 0,-0.26053 -1.3373,0.21785 -2.9707,1.0625 -1.6334,0.84463 -3.32088,1.42355 -3.75,1.2871 -0.42909,-0.13629 -2.12931,0.24752 -3.7793,0.85157 -1.65003,0.60404 -4.60628,1.61152 -6.57031,2.23828 -4.86199,1.55142 -6.26256,1.4458 -5.54883,-0.41406 0.32761,-0.85354 0.17411,-1.2897 -0.3418,-0.97071 -1.26497,0.78176 -2.41775,-5.78337 -1.61914,-9.2207 0.42607,-1.83443 0.33322,-2.29403 -0.2793,-1.375 -0.89313,1.34014 -1.87287,-2.30786 -2.61914,-9.74805 -0.14521,-1.44786 -0.65751,-6.45784 -1.13671,-11.13281 -1.66205,-16.21512 -0.93432,-30.66411 2.13867,-42.5 2.56815,-9.8915 3.59872,-11.71438 7.6289,-11.73438 z"
       transform="matrix(0.26458333,0,0,0.26458333,39.817425,51.517063)"
       id="path5956" />
    <path
       style="fill:#be0808;stroke-width:1.00000012;fill-opacity:1"
       d="m 403.35547,626.16797 c 0.0897,-0.006 0.15301,0.007 0.1875,0.041 0.27613,0.2761 0.50794,6.97959 0.51172,14.89649 0.005,7.91686 0.49595,19.79453 1.09179,26.39453 0.59588,6.6 1.08491,12.675 1.0879,13.5 0.003,0.825 0.60869,4.18067 1.3457,7.45703 1.36611,6.07291 1.28664,6.73048 -0.85938,7.20508 -0.67158,0.14853 -4.37072,1.12089 -8.2207,2.16211 -10.20627,2.7603 -18.88178,4.68196 -19.81445,4.38867 -0.44765,-0.14071 -2.54301,0.21029 -4.65625,0.7793 -2.11325,0.56904 -6.02151,1.23354 -8.68555,1.47656 -2.66408,0.2431 -11.33111,0.75486 -19.25977,1.13867 -13.33712,0.64558 -14.36704,0.5716 -13.76171,-1.00586 0.37689,-0.98215 0.24791,-1.45495 -0.30469,-1.11328 -1.2209,0.75466 -2.45411,-3.97264 -1.45703,-5.58594 0.50846,-0.82269 0.32664,-0.9511 -0.56446,-0.40039 -0.97757,0.60409 -1.16645,0.25986 -0.74609,-1.34765 0.36518,-1.39631 0.18308,-1.92283 -0.51367,-1.49219 -0.6768,0.41828 -0.8429,0.059 -0.44922,-0.9668 0.34439,-0.8976 0.28049,-1.84506 -0.14063,-2.10547 -1.00051,-0.61833 -0.82784,-23.71226 0.18946,-25.33984 0.42973,-0.6875 0.50995,-1.68926 0.17773,-2.22656 -0.33211,-0.5373 -0.0828,-2.89982 0.55274,-5.25 0.6356,-2.35019 1.27441,-5.17345 1.41992,-6.27344 0.14562,-1.09999 0.57032,-3.14041 0.94336,-4.5332 l 0.67773,-2.53125 13.19727,0.28125 c 7.2579,0.15462 13.78198,0.50005 14.49804,0.76953 0.71743,0.2694 1.02546,0.0456 0.68946,-0.49805 -0.33604,-0.54372 0.12543,-0.98828 1.02343,-0.98828 2.38126,0 15.28114,-4.45958 21.56446,-7.45508 6.27114,-2.98972 9.74221,-4.97417 15.68945,-8.96875 2.05509,-1.38038 3.9579,-2.36769 4.58594,-2.4082 z"
       transform="matrix(0.26458333,0,0,0.26458333,39.817425,51.517063)"
       id="path5954" />
    <path
       style="fill:#ffffff;stroke-width:1.00000012"
       d="m 211.37305,640.41797 c 0.26251,-0.0138 0.52856,-0.013 0.80468,0.004 1.84083,0.11276 4.13092,0.93805 8.84375,2.86523 4.66325,1.90688 11.57791,4.03624 15.36719,4.73047 5.80551,1.06367 7.49011,1.8612 10.69727,5.06836 6.0751,6.07506 15.80042,28.50808 19.41992,44.79297 1.20314,5.413 3.49112,24.95401 3.49414,29.85156 9.8e-4,1.47454 -6.04933,4.6691 -14.96875,7.9043 -3.5873,1.30117 -6.79354,2.36523 -7.125,2.36523 -0.33128,0 -0.90008,-4.61249 -1.26367,-10.25 -1.10245,-17.09635 -6.94365,-39.18119 -14.46094,-54.66992 -6.04523,-12.4557 -16.21009,-20.99498 -27.23437,-22.87696 -2.35932,-0.40277 -4.47289,-1.27803 -4.69532,-1.94531 -0.59435,-1.78307 4.50195,-6.10415 8.67188,-7.35351 0.90538,-0.27126 1.66167,-0.44494 2.44922,-0.48633 z"
       transform="matrix(0.26458333,0,0,0.26458333,39.817425,51.517063)"
       id="path5952" />
    <path
       style="fill:#be0808;stroke-width:1.00000012;fill-opacity:1"
       d="m 289.0918,650.14258 c 3.08447,-0.0863 4.46231,1.79367 7.51367,7.76758 3.39987,6.6562 4.48694,10.38164 4.73828,16.24414 0.0862,2.00999 0.48059,3.45389 0.87695,3.20898 1.03688,-0.64082 2.08923,4.23684 1.53711,7.125 -0.25761,1.3482 -0.13288,2.24384 0.27735,1.99024 1.86485,-1.15257 2.87051,15.96718 1.1289,19.21875 -1.65203,3.08432 -11.79162,10.67807 -21.21875,15.89257 -4.38497,2.42548 -8.17141,4.41016 -8.41406,4.41016 -0.24253,0 -0.66544,-1.46251 -0.93945,-3.25 -0.27413,-1.78753 -0.76525,-4.94117 -1.0918,-7.00781 -0.32648,-2.06665 -0.80675,-5.44163 -1.06641,-7.5 -0.25988,-2.05833 -0.7028,-4.47923 -0.98437,-5.37891 -0.63568,-2.03119 -1.68898,-8.63406 -1.83789,-11.51758 -0.0611,-1.18499 -0.44883,-1.94614 -0.86133,-1.6914 -0.4125,0.25493 -0.75,-0.31752 -0.75,-1.27344 0,-1.54511 -0.76043,-4.35263 -2.94727,-10.88086 -1.42201,-4.24505 -9.46315,-19.56391 -11.31054,-21.54688 -1.06855,-1.14692 -1.78285,-2.24644 -1.58594,-2.44335 0.1968,-0.19677 6.65554,-0.61278 14.35156,-0.92383 7.69603,-0.31094 16.15755,-1.11254 18.80469,-1.78125 1.53243,-0.38714 2.75114,-0.63336 3.7793,-0.66211 z"
       transform="matrix(0.26458333,0,0,0.26458333,39.817425,51.517063)"
       id="path5950" />
    <path
       style="fill:#be0808;stroke-width:1.00000012;fill-opacity:1"
       d="m 202.41602,653.19531 c 0.56087,0.0206 1.12549,0.0636 1.69336,0.13086 10.52205,1.24619 18.02849,8.49016 25.66992,24.76953 9.02838,19.23425 12.39445,34.22158 12.66015,56.36133 l 0.0606,4.95899 -5,1.61718 c -2.74998,0.88982 -5.675,1.87374 -6.5,2.18555 -6.99929,2.64454 -31.44552,9.58598 -36.00977,10.22461 -1.3804,0.19313 -4.46395,0.8766 -6.85156,1.51953 -2.38761,0.64282 -4.54717,0.96064 -4.80078,0.70703 -0.2536,-0.2536 -3.02202,0.15058 -6.15039,0.89844 v 0.002 c -3.73756,0.89348 -12.278,1.37381 -24.90625,1.39649 L 133.0625,758 l 0.47656,-4.69922 c 0.4973,-4.91475 0.86646,-6.36246 4.55078,-17.80078 3.16786,-9.83486 11.90205,-27.62314 13.17578,-26.83594 0.61414,0.37958 0.74408,0.16075 0.31641,-0.53125 -0.40022,-0.64754 0.70536,-3.52581 2.46094,-6.40429 3.67014,-6.01769 15.9308,-23.26741 18.64258,-26.22852 1.00738,-1.09999 3.36149,-4.02498 5.23047,-6.5 8.4116,-11.13913 16.08688,-16.11307 24.5,-15.80469 z"
       transform="matrix(0.26458333,0,0,0.26458333,39.817425,51.517063)"
       id="path5948" />
    <path
       style="fill:#000000;stroke-width:1.00000012"
       d="m 559.00781,662 c -0.54523,0 -3.13275,1.63995 -5.75,3.64453 -5.58236,4.27552 -13.31507,7.89448 -26.34375,12.32813 -5.17727,1.76182 -9.60104,3.38884 -9.83008,3.61523 -1.83462,1.813 13.12617,-1.87202 22.89844,-5.64062 C 550.49646,671.89263 563.99036,662 559.00781,662 Z"
       transform="matrix(0.26458333,0,0,0.26458333,39.817425,51.517063)"
       id="path5946" />
    <path
       style="fill:#000000;stroke-width:1.00000012"
       d="m 403.4668,665.46289 c -0.1809,-0.0674 -0.3086,0.50584 -0.3086,1.53711 0,1.37511 0.22649,1.9375 0.50391,1.25 0.27742,-0.68753 0.27742,-1.8125 0,-2.5 -0.0694,-0.17187 -0.13501,-0.26465 -0.19531,-0.28711 z"
       transform="matrix(0.26458333,0,0,0.26458333,39.817425,51.517063)"
       id="path5944" />
    <path
       style="fill:#000000;stroke-width:1.00000012"
       d="m 328.53711,676.23047 c -0.15542,-0.12129 -0.26563,0.91326 -0.26563,2.76953 0,2.47487 0.19511,3.48749 0.4336,2.25 0.23849,-1.23749 0.23849,-3.26247 0,-4.5 -0.0596,-0.30937 -0.11617,-0.4791 -0.16797,-0.51953 z"
       transform="matrix(0.26458333,0,0,0.26458333,39.817425,51.517063)"
       id="path5942" />
    <path
       style="fill:#000000;stroke-width:1.00000012"
       d="m 555.86133,679.98047 c -0.0963,0.0384 -0.29519,0.18139 -0.60352,0.43945 -1.23333,1.03223 -7.08334,3.86442 -13,6.29492 -9.79993,4.02573 -10.31271,4.36036 -5.75781,3.76172 7.11337,-0.9349 13.69826,-4.02545 17.61914,-8.27148 1.39496,-1.51056 2.03111,-2.33967 1.74219,-2.22461 z"
       transform="matrix(0.26458333,0,0,0.26458333,39.817425,51.517063)"
       id="path5755" />
  </g>
  <g
     inkscape:groupmode="layer"
     id="layer4"
     inkscape:label="Layer 2"
     style="display:none"
     transform="translate(-31.029472,-10.31245)">
    <path
       style="fill:#000000;stroke-width:0.26458332"
       d="m 179.4442,203.94414 c 0,-0.13801 0.12385,-0.57667 0.27522,-0.97481 0.21085,-0.55457 0.17438,-0.97593 -0.15594,-1.80148 -0.37231,-0.93049 -0.40706,-1.83627 -0.25455,-6.63552 0.25463,-8.01324 -0.31705,-10.31372 -3.94684,-15.88232 -3.22204,-4.94303 -5.56187,-5.9701 -7.79823,-3.42302 -0.78992,0.89966 -1.7036,3.02373 -2.01523,4.68491 -0.21592,1.15092 0.28308,2.98157 1.85723,6.81354 0.62769,1.52797 1.22445,3.33764 1.32615,4.02149 0.10171,0.68385 0.47571,1.63635 0.83113,2.11667 0.53796,0.72701 0.57655,0.88783 0.23034,0.96004 -0.22873,0.0477 -0.92691,-0.16065 -1.55153,-0.46302 -0.62461,-0.30237 -1.52655,-0.54976 -2.00432,-0.54976 -2.59123,0 -6.16247,-3.63713 -8.63302,-8.7923 -0.695,-1.45021 -0.91458,-2.25188 -0.91458,-3.33905 0,-1.38827 0.0431,-1.4721 1.45521,-2.82889 0.80037,-0.76902 1.45521,-1.46047 1.45521,-1.53656 0,-0.19344 -5.99836,2.43126 -10.58034,4.62963 -4.4705,2.14489 -6.99251,3.65742 -15.0138,9.00424 -3.23547,2.15669 -6.09297,3.91882 -6.34999,3.91584 -0.25703,-0.003 -1.52294,-0.71397 -2.81313,-1.57998 -2.44839,-1.64341 -3.83355,-2.25576 -7.51731,-3.32328 -1.90636,-0.55244 -2.53821,-0.617 -4.6386,-0.47398 -2.23155,0.15194 -2.67109,0.28114 -5.34204,1.57018 -3.71593,1.79336 -5.61096,2.27412 -9.392706,2.38289 -3.576378,0.10286 -4.276148,0.18521 -8.995833,1.05863 -6.560063,1.21399 -19.567818,4.8689 -30.947232,8.69552 -2.396136,0.80577 -4.673886,1.46503 -5.061667,1.46503 -0.387784,0 -1.880122,-0.42568 -3.316309,-0.94596 -4.790704,-1.73548 -4.823978,-1.74006 -13.994206,-1.92546 l -8.47254,-0.17129 -1.735383,-0.85448 c -1.986234,-0.97799 -5.989079,-4.55841 -7.163165,-6.40722 -0.631167,-0.99388 -0.746997,-1.45543 -0.746997,-2.97656 0,-0.99016 0.09631,-1.80028 0.214014,-1.80028 0.117707,0 0.445129,0.1748 0.727604,0.38846 0.282475,0.21365 1.079137,0.39224 1.770361,0.39687 l 1.256771,0.008 v -0.93284 -0.93284 l 0.859896,0.46366 c 0.623751,0.33632 1.513837,0.47062 3.241146,0.48902 2.964072,0.0316 4.448137,0.57111 7.87708,2.86366 5.90392,3.9473 8.152963,4.90724 12.008519,5.12549 4.006596,0.22679 4.413408,-0.12804 2.589625,-2.25871 -1.041464,-1.21672 -2.207628,-1.60801 -7.214148,-2.42057 -2.630969,-0.42702 -3.413191,-0.65818 -4.055194,-1.19839 -0.464974,-0.39125 -1.125932,-0.66932 -1.59094,-0.66932 -1.074056,0 -0.87019,-0.52216 0.464849,-1.19062 0.581266,-0.29104 1.494253,-0.86794 2.028862,-1.28199 1.637112,-1.26795 3.867208,-1.82682 7.338221,-1.83898 3.642855,-0.0128 5.583328,0.58682 7.243805,2.2383 l 1.026097,1.02052 -0.184137,2.35385 c -0.16397,2.09603 -0.122505,2.47466 0.378552,3.45682 0.734156,1.43906 1.746952,1.85669 4.502714,1.85669 1.952207,0 9.698297,-0.94384 13.226719,-1.61163 5.452658,-1.03198 12.063357,-4.3244 17.697942,-8.81437 2.626259,-2.09276 2.726563,-2.1284 4.180213,-1.48538 l 1.234368,0.54602 1.408322,-0.58372 c 0.774578,-0.32104 1.408321,-0.66878 1.408321,-0.77274 0,-0.10397 -0.488328,-0.47742 -1.085175,-0.8299 -1.327306,-0.78385 -1.744229,-0.74204 -9.774042,0.98025 -6.506794,1.39563 -9.235667,1.56507 -10.404059,0.64601 -1.411322,-1.11014 -0.679606,-1.95984 2.372246,-2.75475 0.829747,-0.21612 1.550871,-0.43519 1.602502,-0.48682 0.05163,-0.0516 -0.591471,-0.24499 -1.429112,-0.42968 -2.539098,-0.55987 -6.969607,-2.12066 -8.922957,-3.14339 -3.035062,-1.58911 -6.404477,-5.39564 -6.179558,-6.98123 0.07418,-0.52291 0.234101,-0.60191 1.182132,-0.58396 l 1.096354,0.0208 -1.34107,-1.60826 c -2.907826,-3.48717 -5.910778,-8.8465 -7.366531,-13.14697 -1.280547,-3.78289 -1.213999,-8.12559 0.138358,-9.02859 0.5944,-0.39688 1.526167,-0.18182 2.155838,0.49761 0.806609,0.87034 0.805257,0.8251 -0.04615,-1.54422 -1.726938,-4.8058 -3.287572,-7.22085 -7.887319,-12.20548 -3.615121,-3.91761 -4.495202,-5.51707 -3.553724,-6.45855 0.608719,-0.60872 -1.537057,-1.23443 -4.281874,-1.24859 -2.415071,-0.0125 -2.619626,0.0326 -4.60779,1.0152 -2.142731,1.059 -4.624393,3.29249 -8.485404,7.63686 -1.334277,1.50131 -1.722013,1.78594 -2.432933,1.78594 -0.544783,0 -0.936739,0.1701 -1.101557,0.47807 -0.140721,0.26294 -1.149531,3.11332 -2.241798,6.33417 -1.092268,3.22086 -2.18564,6.16088 -2.429715,6.53339 -0.30486,0.46526 -0.680588,0.67727 -1.2003,0.67727 -1.709635,0 -2.229654,-3.18084 -2.011375,-12.30312 0.158821,-6.6374 0.524645,-10.12775 1.663864,-15.875 2.591952,-13.07617 6.28755,-16.88712 18.225433,-18.79433 1.452412,-0.23204 2.679883,-0.46102 2.727714,-0.50886 0.04783,-0.0478 -1.319099,-0.63514 -3.03762,-1.30512 -3.766108,-1.468272 -4.844381,-2.090906 -4.844381,-2.79733 0,-2.0574 5.335588,-1.849689 13.146096,0.51177 5.77366,1.74563 10.598911,4.06742 14.20872,6.83688 0.856869,0.6574 1.505704,1.08634 1.441852,0.95321 -1.26591,-2.63951 -1.618957,-3.57146 -1.645283,-4.3431 -0.02922,-0.85637 0.02405,-0.92217 0.707959,-0.87459 1.741914,0.12118 6.611258,4.60279 9.427861,8.67715 1.780738,2.57593 3.366812,5.81641 4.056187,8.28713 0.505854,1.81298 0.567068,2.69626 0.562726,8.11969 -0.0027,3.34698 -0.131823,8.88338 -0.286991,12.30312 -0.431562,9.51131 0.0195,17.47737 1.288434,22.75417 1.168281,4.85828 3.622614,9.30829 6.640766,12.04055 1.480767,1.3405 5.825956,3.84627 6.134563,3.53767 0.0656,-0.0656 -0.186584,-0.73727 -0.560395,-1.4926 -1.236483,-2.49848 -0.117391,-2.87867 2.965,-1.00731 1.488974,0.90398 1.963756,1.08554 2.075722,0.79375 0.104971,-0.27355 0.614511,-0.37831 1.839944,-0.37831 1.302661,0 1.962648,-0.14913 2.852576,-0.64455 0.636792,-0.3545 2.305342,-0.87805 3.707882,-1.16345 2.28356,-0.46468 2.70628,-0.64615 4.04478,-1.73637 1.83439,-1.49414 3.32503,-2.27647 4.33755,-2.27647 0.42187,0 1.65056,-0.40821 2.73042,-0.90714 2.2821,-1.05439 5.4078,-1.92288 7.80406,-2.16839 1.41813,-0.14529 1.68416,-0.252 1.68416,-0.6756 0,-1.51837 -0.64795,-5.90966 -1.1835,-8.02086 -1.96022,-7.72744 -5.03867,-12.05423 -17.82388,-25.05169 l -5.381347,-5.47067 -1.201647,0.51508 c -2.397329,1.02762 -7.050876,2.04702 -7.324386,1.60447 -0.0884,-0.14303 0.212325,-1.19171 0.668276,-2.3304 0.455954,-1.13868 1.008732,-2.98261 1.2284,-4.09761 0.385048,-1.95445 0.379267,-2.06884 -0.16092,-3.18472 -0.308171,-0.6366 -0.637402,-1.57132 -0.73162,-2.07715 -0.100632,-0.54025 -0.587717,-1.35633 -1.1806,-1.97802 -0.555112,-0.58209 -1.141865,-1.41085 -1.303896,-1.8417 -0.616733,-1.63991 1.03356,-4.05404 3.553857,-5.19876 1.472893,-0.66898 2.10838,-0.66476 1.746398,0.0116 -0.579525,1.08285 -0.363847,1.34075 1.115171,1.33349 1.371304,-0.007 1.400728,-0.024 2.301584,-1.35158 0.954008,-1.4059 5.66197,-5.93115 6.79079,-6.52724 0.85672,-0.45241 1.64742,-0.17897 1.85319,0.64088 0.14695,0.58551 0.28442,0.64873 1.25611,0.57768 0.97333,-0.0712 1.10928,-0.16548 1.25951,-0.87354 0.32243,-1.51979 0.2282,-4.279046 -0.19479,-5.703406 -0.56231,-1.893491 -3.05095,-4.35283 -6.33077,-6.256226 -3.254053,-1.888424 -3.562186,-2.1326 -3.562186,-2.822769 0,-0.54511 -0.265097,-0.668094 -2.783187,-1.29119 -3.282799,-0.812324 -4.659757,-1.43079 -5.021466,-2.255411 -0.201713,-0.45987 -0.420267,-0.571125 -0.926042,-0.471409 -1.943497,0.383178 -6.395344,0.72543 -7.970266,0.612746 -2.110613,-0.151013 -3.142789,-0.700378 -3.142789,-1.672714 0,-2.727505 4.861126,-6.557941 10.583333,-8.339381 1.091406,-0.339778 2.040276,-0.658791 2.108597,-0.708919 0.06832,-0.05013 -0.259099,-0.391139 -0.727604,-0.757801 -1.242454,-0.972365 -1.187339,-2.03531 0.140361,-2.706992 3.142684,-1.589876 10.576649,-1.738582 14.771109,-0.295479 1.8542,0.637943 1.78036,0.63894 1.42808,-0.01931 -0.15936,-0.297765 -0.25284,-0.922843 -0.20774,-1.389063 0.0804,-0.831093 0.10786,-0.847516 1.40491,-0.839858 1.05444,0.0062 1.57871,0.183827 2.58337,0.875141 2.77673,1.910693 6.026,5.929889 7.5895,9.387871 l 0.73944,1.635427 0.19218,-1.229429 c 0.26139,-1.672153 1.02164,-2.871605 1.82012,-2.871605 2.04052,0 4.12535,4.953407 4.13642,9.827858 0.009,4.164547 -1.42453,6.864321 -6.86581,12.926308 -1.76338,1.964532 -3.78568,4.428991 -4.49401,5.476581 -1.24933,1.84774 -1.28387,1.95064 -1.15445,3.43959 0.0819,0.94228 -0.0801,2.81174 -0.41967,4.84216 -0.79317,4.74295 -0.74239,5.82877 0.37578,8.0355 2.05584,4.05725 0.43375,6.49653 -4.32957,6.51077 l -1.94337,0.006 0.72052,1.25677 c 1.638,2.85706 4.27931,6.56786 8.05102,11.31094 2.19865,2.7649 4.91605,6.33347 6.03867,7.93016 2.78849,3.96607 6.69215,10.51945 7.67133,12.87845 0.96444,2.3235 1.6454,5.44807 1.64693,7.5568 7.9e-4,1.10829 0.1839,1.89281 0.66146,2.83412 0.74235,1.46325 0.81661,2.69809 0.25584,4.25464 -0.2097,0.58208 -0.38558,1.53458 -0.39084,2.11666 -0.0138,1.52935 -1.05672,4.26082 -2.44794,6.41143 l -1.20768,1.86688 0.74068,0.88722 0.74069,0.88722 7.23071,-2.90063 c 11.43112,-4.58564 15.6881,-6.79595 25.76909,-13.37986 3.05594,-1.99583 6.05753,-3.88161 6.67019,-4.19063 2.05629,-1.03713 2.33781,-0.91491 6.07886,2.63912 1.85317,1.76052 4.20759,3.94863 5.23205,4.86245 2.43588,2.17282 8.00434,6.22248 8.56638,6.2299 0.70159,0.009 2.53104,0.92449 3.37188,1.68686 0.42477,0.38512 1.30554,1.08867 1.95727,1.56344 2.2572,1.64431 3.44525,4.58157 3.44525,8.51784 0,4.57325 -1.86107,8.52422 -4.68448,9.94495 -0.69775,0.35111 -1.65974,0.96581 -2.13775,1.36599 -0.478,0.40018 -1.1543,0.7276 -1.50288,0.7276 -0.58673,0 -0.61582,-0.0626 -0.39183,-0.84365 0.19054,-0.66436 0.14604,-0.94964 -0.20935,-1.34235 -0.30546,-0.33753 -0.48478,-1.09097 -0.55487,-2.33135 -0.057,-1.00795 -0.17942,-1.83236 -0.27214,-1.83202 -0.0927,2.7e-4 -0.50886,0.65189 -0.92477,1.44787 -0.69631,1.33262 -1.55279,2.23365 -3.96943,4.17588 -1.04997,0.84386 -2.815,1.64365 -2.815,1.27557 z m 1.77118,-0.93846 c 0.78622,-0.69168 0.77726,-0.7009 -0.6467,-0.66479 -0.27903,0.007 -0.5999,1.31789 -0.3226,1.31789 0.12482,0 0.56101,-0.2939 0.9693,-0.6531 z m 8.75431,-0.73241 c 0.23515,-0.28334 0.13614,-0.36821 -0.48478,-0.41553 -0.67563,-0.0515 -0.78029,0.0311 -0.78029,0.61552 0,0.57238 0.0737,0.63554 0.48478,0.41552 0.26663,-0.14269 0.61776,-0.41968 0.78029,-0.61551 z M 63.337452,199.80411 c 12.84969,-4.20779 15.366346,-4.91526 22.475171,-6.31808 3.402732,-0.67148 6.45627,-1.27935 6.785636,-1.35082 l 0.59885,-0.12996 -0.558257,-0.75508 c -0.51838,-0.70115 -0.535348,-0.8661 -0.237498,-2.30918 0.176419,-0.85475 0.540988,-1.98776 0.810159,-2.51781 0.488754,-0.96246 0.488627,-0.96392 -0.09677,-1.12086 -1.413219,-0.37888 -1.952014,-0.14792 -4.782947,2.05018 -6.561481,5.09471 -12.770927,7.65092 -22.253585,9.16103 -9.505527,1.51374 -13.248489,0.7686 -13.774981,-2.7423 -0.137615,-0.91768 -0.286769,-1.21672 -0.552908,-1.10853 -0.200448,0.0815 -0.543046,0.22043 -0.761328,0.30876 -0.672126,0.27198 -0.438012,-0.3215 0.25059,-0.63525 0.962274,-0.43844 1.563084,-1.49571 1.345478,-2.36769 -0.296223,-1.187 -1.454905,-2.47516 -2.736178,-3.04193 -1.070423,-0.47349 -1.592935,-0.51543 -4.923491,-0.39519 -5.101789,0.18419 -7.827023,1.11933 -7.827023,2.68578 0,1.11948 0.80401,1.48161 4.465367,2.01124 1.903257,0.27531 3.909573,0.62234 4.458486,0.77117 1.5284,0.41441 2.868959,1.46631 3.466163,2.71981 0.668698,1.40357 1.049854,3.28 0.611188,3.00888 -0.165664,-0.10238 -0.301205,-0.36718 -0.301205,-0.58843 0,-0.32249 -0.170569,-0.35875 -0.859895,-0.18283 -0.472943,0.12071 -1.871927,0.21085 -3.108855,0.20031 -1.787588,-0.0152 -2.776762,-0.19373 -4.82175,-0.87011 -2.482803,-0.82119 -3.575669,-1.4501 -7.878249,-4.53366 -2.47273,-1.77215 -4.527886,-2.48661 -7.196015,-2.50162 -3.174273,-0.0179 -3.374618,0.31349 -0.953127,1.57641 1.062288,0.55404 2.414839,1.33598 3.005667,1.73765 3.052231,2.07504 7.114269,3.69047 11.347483,4.51276 1.447673,0.28121 2.697829,0.58257 2.778125,0.66969 0.279672,0.30342 -3.741137,-0.21446 -5.759159,-0.74178 -2.52361,-0.65943 -5.48319,-2.03191 -9.214206,-4.27301 -3.141549,-1.88702 -4.850723,-2.56863 -6.440982,-2.56863 -1.66996,0 -2.384453,0.45546 -2.384453,1.51998 0,0.79956 0.333843,1.23846 2.844271,3.73936 2.963231,2.95198 4.705499,4.11279 6.636348,4.42154 l 1.116147,0.17848 -0.271299,-0.71357 c -0.461618,-1.21415 -0.300965,-1.37479 0.377041,-0.37701 0.760354,1.11896 1.108624,1.28538 2.689899,1.28538 1.082957,0 1.156133,-0.0414 0.904402,-0.51177 -0.427902,-0.79954 -0.330973,-0.86707 0.453712,-0.31607 0.626399,0.43985 1.356645,0.53107 5.250042,0.65588 5.123733,0.16425 8.799454,0.79132 11.826004,2.01749 1.049293,0.4251 2.344926,0.77908 2.879183,0.78661 0.556731,0.008 4.961435,-1.2929 10.31875,-3.04722 z m 119.373208,1.63982 c 1.0097,-0.42188 2.55569,-2.45482 3.65772,-4.8098 2.03248,-4.34331 2.01785,-11.23963 -0.028,-13.19968 -0.58686,-0.56225 -1.14756,-0.74649 -3.04399,-1.00023 -2.34429,-0.31367 -2.48939,-0.67835 -0.28539,-0.71726 l 1.05324,-0.0186 -0.82998,-0.82999 c -0.72652,-0.72652 -1.01651,-0.83268 -2.3262,-0.85161 -1.28411,-0.0186 -1.43049,-0.0697 -1.03259,-0.36064 0.255,-0.18645 0.62099,-0.33901 0.81332,-0.33901 0.19232,0 -0.3845,-0.89453 -1.28183,-1.98784 -0.89734,-1.09331 -1.57638,-2.04298 -1.50898,-2.11038 0.0674,-0.0674 1.04617,0.88667 2.17505,2.12013 1.12889,1.23347 2.22252,2.24267 2.43031,2.24267 0.20778,0 0.9628,0.56555 1.67781,1.25677 0.71502,0.69123 1.6607,1.45534 2.10152,1.69803 0.44082,0.24269 1.0739,0.95707 1.40683,1.5875 0.54497,1.03195 0.60494,1.50241 0.60137,4.71812 -0.002,1.96453 -0.0981,4.70297 -0.21324,6.08542 -0.3938,4.7302 0.39308,6.65132 2.55802,6.24517 4.81353,-0.90302 7.34992,-9.73325 4.45815,-15.52062 -0.99834,-1.998 -2.39487,-2.93137 -4.72724,-3.15944 l -1.79423,-0.17546 1.16957,-0.21814 1.16956,-0.21815 -0.70759,-0.60864 c -0.93166,-0.80138 -2.38531,-1.05263 -3.83968,-0.66365 -1.49278,0.39926 -1.68814,0.2105 -0.44317,-0.42821 l 0.9705,-0.4979 -1.54084,-1.01506 c -2.98229,-1.96465 -6.05848,-4.53235 -10.06182,-8.3986 -2.22421,-2.14804 -4.34228,-3.9804 -4.70683,-4.0719 -1.0592,-0.26584 -1.82664,0.0564 -4.56683,1.91762 -10.73655,7.29255 -18.19815,11.31053 -28.83552,15.52757 -8.12405,3.22068 -8.81682,3.58026 -10.88795,5.6514 l -1.70592,1.70591 1.16931,1.04157 c 1.68205,1.4983 2.09298,1.37386 7.20445,-2.18178 7.92816,-5.51497 17.44815,-10.72243 24.78881,-13.55953 5.25756,-2.03201 7.54116,-3.18881 9.03228,-4.57548 0.7515,-0.69885 1.23387,-1.01908 1.07194,-0.71161 -0.37656,0.715 -1.69669,1.87314 -3.2689,2.86779 -1.09706,0.69406 -1.18532,0.81816 -0.79368,1.11602 0.387,0.29432 0.34401,0.33685 -0.3531,0.34935 -0.83796,0.015 -2.86917,0.83068 -3.13344,1.25827 -0.0945,0.15295 0.34831,0.20398 1.1236,0.12948 1.72217,-0.16548 1.97748,0.35005 0.27331,0.55189 -2.48517,0.29433 -4.48968,1.98878 -4.4749,3.78273 0.0154,1.87343 2.72369,6.60519 5.06586,8.85083 1.85582,1.77935 3.3674,2.48568 4.65502,2.17518 0.94117,-0.22695 0.98717,-0.2883 0.96146,-1.28217 -0.0152,-0.58858 -0.64849,-2.60163 -1.45198,-4.61569 -1.3046,-3.27019 -1.42523,-3.75066 -1.4282,-5.68854 -0.003,-1.82195 0.10518,-2.33063 0.77537,-3.65331 1.45128,-2.86422 3.68424,-4.17907 5.57001,-3.27981 2.78711,1.32908 6.69986,6.91279 8.09108,11.54641 0.56126,1.86937 0.58259,2.26638 0.42771,7.9628 -0.19776,7.27303 -0.12853,7.86203 0.98083,8.34496 1.01755,0.44296 0.81803,0.44132 1.83802,0.0151 z m -13.50671,-8.49246 c -0.5103,-0.70113 -0.79778,-0.79268 -1.36352,-0.43422 -0.48453,0.30702 -0.1442,0.51284 1.76039,1.06462 0.0432,0.0125 -0.13542,-0.27117 -0.39687,-0.6304 z m -66.65138,-1.98497 c 2.33873,-0.59815 4.60009,-1.62306 6.98441,-3.16551 1.78218,-1.15292 2.17045,-1.31214 1.63941,-0.67228 -0.18407,0.2218 -0.2825,0.45545 -0.21873,0.51922 0.18748,0.18748 6.60947,-0.38744 7.76023,-0.69471 1.69982,-0.45388 3.55069,-1.50623 4.97689,-2.82972 2.89828,-2.68956 6.25761,-8.13679 6.77489,-10.98567 0.32901,-1.81196 -0.35232,-3.99987 -0.85649,-2.75041 -0.0734,0.1819 -0.14521,-0.44317 -0.15958,-1.38906 -0.0581,-3.82139 -1.17876,-8.44794 -2.88906,-11.92686 -1.44831,-2.946 -5.6092,-9.02819 -9.57913,-14.00231 -5.25862,-6.58877 -10.71262,-14.24817 -11.64411,-16.35254 -0.29696,-0.6709 -0.55544,-0.8111 -1.97886,-1.07338 -1.47008,-0.27087 -1.76238,-0.24635 -2.86214,0.24013 -0.673666,0.29799 -1.224849,0.61769 -1.224849,0.71044 0,0.0927 2.837099,3.03398 6.304669,6.53606 8.6314,8.71731 12.46457,13.33464 14.57653,17.55853 2.21455,4.42903 3.46047,9.83552 3.46047,15.01619 0,2.00181 -0.10667,2.27029 -0.63229,1.59143 -0.25404,-0.3281 -0.61567,-0.32967 -2.675,-0.0116 -4.23511,0.65409 -8.26718,2.1927 -7.91027,3.0185 0.0987,0.22837 0.35006,1.01053 0.55858,1.73813 0.48029,1.67594 0.2902,6.97364 -0.33229,9.26042 -0.61295,2.25175 -2.1202,4.99146 -3.3645,6.11561 -1.05518,0.9533 -1.07797,0.95969 -2.94497,0.82647 -2.32999,-0.16626 -3.92047,-0.86516 -5.88895,-2.58772 -0.824391,-0.72141 -1.582951,-1.31166 -1.685686,-1.31166 -0.102738,0 -1.201354,0.47544 -2.441374,1.05654 -2.578761,1.20845 -3.110336,1.92401 -3.110336,4.18692 0,1.20686 0.06589,1.3511 0.727604,1.59277 1.326484,0.48448 6.395202,0.3589 8.634932,-0.21392 z m -84.315213,-1.78421 c -0.428373,-0.42837 -0.453571,-0.40318 -0.453571,0.45357 0,0.85675 0.0252,0.88194 0.453571,0.45357 0.428373,-0.42837 0.428373,-0.47877 0,-0.90714 z m 107.582383,-0.77876 1.80575,-1.89378 -0.96935,-0.88434 c -1.49609,-1.36489 -1.67595,-1.4151 -2.46766,-0.68888 -1.2571,1.15311 -2.43231,1.84313 -4.17809,2.45316 -1.88299,0.65796 -2.30276,0.91533 -1.5306,0.93842 0.27892,0.008 1.51915,0.47287 2.75608,1.0323 1.23692,0.55943 2.36802,0.99909 2.51354,0.97702 0.14552,-0.0221 1.07717,-0.89232 2.07033,-1.9339 z m -89.250538,0.83546 c 0,-0.50083 -0.287197,-0.5034 -0.941618,-0.008 -0.491938,0.37209 -0.482915,0.38881 0.214014,0.39688 0.474109,0.005 0.727604,-0.12986 0.727604,-0.38846 z m -13.811955,-0.0936 c 0.281282,-0.17843 0.281282,-0.26579 0,-0.48392 -0.837384,-0.64935 -1.004711,-0.64391 -1.004711,0.0327 0,0.68341 0.373948,0.85136 1.004711,0.45123 z m 85.343013,-2.24615 c 1.3546,-0.82 2.40304,-2.44115 3.26292,-5.04529 0.63432,-1.92107 0.70855,-2.5472 0.72559,-6.12014 0.0161,-3.38575 -0.0511,-4.08709 -0.45015,-4.69635 -0.25801,-0.39392 -0.68922,-0.71622 -0.95824,-0.71622 -0.81063,0 -4.28683,2.47099 -6.00401,4.26785 -2.69221,2.81713 -5.136336,6.64448 -5.136336,8.04318 0,1.52059 4.635266,4.88899 6.722986,4.88553 0.4497,-7.9e-4 1.27646,-0.2791 1.83724,-0.61856 z m -22.186267,-3.69601 c 2.037291,-0.51003 4.656666,-1.07929 5.820833,-1.26502 1.164167,-0.18573 2.15142,-0.36036 2.193899,-0.38807 0.171875,-0.11212 -3.011321,-3.01655 -3.311491,-3.02149 -0.782235,-0.0129 -4.591354,-1.74165 -6.213274,-2.8199 -2.708143,-1.80037 -5.56737,-5.29668 -7.105263,-8.68843 -1.40434,-3.0972 -2.104539,-6.75549 -2.913111,-15.21992 -0.338074,-3.5391 -0.233002,-10.20654 0.298122,-18.9177 0.552059,-9.0545 -0.09716,-13.84509 -2.528678,-18.65908 -2.099831,-4.1573 -8.75983,-11.9003 -10.235835,-11.9003 -0.770977,0 -0.483161,0.90014 1.090872,3.41171 0.707414,1.12877 1.663806,2.80032 2.125313,3.71457 l 0.839105,1.66225 -2.201079,-1.84799 C 57.795537,104.24494 50.621122,100.6448 42.78691,98.732786 c -4.093369,-0.999024 -8.334375,-1.186029 -8.334375,-0.367501 0,0.145867 0.267891,0.375063 0.595313,0.50932 3.549218,1.455335 5.900613,2.381715 8.797395,3.465905 l 3.439584,1.28735 -2.563471,0.009 c -4.166418,0.0149 -11.834592,1.47672 -14.766737,2.81497 -2.931579,1.338 -5.248605,4.89078 -7.229244,11.08485 -2.286324,7.15005 -3.495775,18.18198 -2.84266,25.92917 0.660949,7.84012 1.060886,7.66345 4.093378,-1.80832 0.830916,-2.59531 1.988106,-5.81 2.571534,-7.14375 1.459983,-3.33762 4.599285,-9.10902 5.564641,-10.23022 0.976937,-1.13465 0.915224,-0.98992 -0.810072,1.89987 -2.215514,3.71088 -4.300519,8.951 -3.559835,8.94673 0.417436,-0.002 1.615541,-1.16545 3.678203,-3.57056 2.776642,-3.23763 4.583485,-4.72401 7.397596,-6.08556 2.503596,-1.21132 4.92483,-2.02049 4.033121,-1.34786 -0.404215,0.3049 -0.226568,0.36765 1.362855,0.48137 2.667283,0.19085 4.721654,1.24095 7.110704,3.63469 2.729603,2.73497 3.558066,4.00658 1.244507,1.9102 -1.786567,-1.61886 -3.735451,-2.87594 -4.019018,-2.59237 -0.397269,0.39727 0.436147,1.6991 2.748976,4.29401 3.397096,3.81144 6.245489,7.67035 7.48199,10.13638 1.275419,2.54364 4.200933,11.67428 5.728721,17.87956 0.281107,1.14174 -0.451596,-0.40813 -1.777669,-3.76027 -1.505609,-3.80597 -3.082684,-6.96386 -4.06818,-8.14598 l -0.66172,-0.79375 -0.530165,0.62462 c -0.711086,0.83778 -0.711414,3.47684 -7.93e-4,6.25541 0.616974,2.41235 2.546125,6.5681 4.355187,9.38189 1.650867,2.56773 5.717788,7.94884 6.904283,9.13534 0.510829,0.51083 0.842672,0.92878 0.737428,0.92878 -0.105243,0 -0.972415,-0.46973 -1.92705,-1.04384 -1.987754,-1.19542 -3.117868,-1.66964 -3.295182,-1.38274 -0.215413,0.34855 0.627809,1.78495 1.70737,2.90845 1.922645,2.0009 5.286573,4.01485 8.429355,5.04657 1.796743,0.58984 9.748583,2.12918 11.195319,2.16721 l 0.864942,0.0228 -0.79375,0.23877 c -0.436563,0.13133 -1.805781,0.36903 -3.042708,0.52824 -2.867647,0.3691 -5.551747,0.97106 -6.004195,1.34655 -0.281019,0.23323 -0.286176,0.37213 -0.02548,0.68624 0.551262,0.66423 4.980528,0.27941 9.336969,-0.81121 z m 41.604767,-0.77731 c 0.80872,-1.33981 1.65461,-3.15306 1.65461,-3.54683 0,-0.10472 -0.71438,0.8565 -1.5875,2.13603 -1.64825,2.41545 -1.8194,2.79987 -1.24653,2.79987 0.18753,0 0.71827,-0.62508 1.17942,-1.38907 z m -28.386097,-2.36731 c 0.153919,-0.36629 -0.315502,-0.70093 -2.546231,-1.81513 -1.504217,-0.75132 -3.724595,-1.96067 -4.934172,-2.68744 -1.209577,-0.72678 -2.270506,-1.25013 -2.35762,-1.16302 -0.641075,0.64107 3.754932,5.58385 6.744552,7.58343 l 2.004269,1.34054 0.450247,-1.40465 c 0.247636,-0.77255 0.535167,-1.60673 0.638955,-1.85373 z m 1.660197,-2.39048 c 0.32525,-0.46532 0.50384,-0.92021 0.39687,-1.01087 -0.10697,-0.0907 -1.503315,-0.31803 -3.102996,-0.50526 -1.599679,-0.18723 -3.08796,-0.39427 -3.307292,-0.46009 -1.039278,-0.31189 1.602459,1.5669 3.018062,2.14642 2.081366,0.85208 2.289056,0.84027 2.995356,-0.1702 z m 2.28692,-3.00977 0.76162,-0.95453 -0.89391,0.19316 c -0.49165,0.10623 -1.66782,0.44109 -2.61371,0.74412 l -1.719787,0.55098 1.058333,0.17286 c 2.279754,0.37236 2.599454,0.30606 3.407454,-0.70659 z m -8.616002,-46.8185 c 1.126961,-0.37246 3.316454,-1.2952 4.865539,-2.05052 2.034283,-0.9919 2.877183,-1.28633 3.034973,-1.06013 0.36446,0.5225 5.90079,0.97118 7.60869,0.61662 1.95437,-0.40573 2.90857,-1.46961 2.73101,-3.04491 -0.26761,-2.3743 -2.35926,-5.12771 -4.30041,-5.66098 -1.59678,-0.43867 -5.76557,-0.3658 -7.27261,0.12713 -1.0997,0.35969 -1.395221,0.36903 -2.034092,0.0643 -0.594899,-0.28379 -0.764339,-0.56052 -0.830117,-1.35577 -0.08111,-0.98057 -0.09929,-0.99608 -0.974942,-0.83181 -1.294653,0.24288 -2.607447,-0.2926 -3.710424,-1.51347 -0.895299,-0.99098 -0.959903,-1.17317 -0.87735,-2.47413 0.107894,-1.70032 -0.109664,-1.64095 -0.744233,0.20309 -0.326089,0.94759 -0.478933,2.18094 -0.483251,3.89949 -0.01267,5.04198 1.657331,6.87916 6.253154,6.87916 2.860785,0 4.456155,-0.96173 4.456155,-2.6863 0,-0.52685 -0.15756,-0.752 -0.59532,-0.85071 -0.32742,-0.0738 0.31484,-0.1008 1.42724,-0.0599 1.6349,0.0601 2.25612,0.21118 3.24115,0.78844 0.67023,0.39278 1.21859,0.75388 1.21859,0.80244 0,0.0486 -0.77932,-0.19458 -1.73182,-0.54032 -1.77457,-0.64413 -3.18413,-0.82638 -2.90558,-0.37568 0.29433,0.47625 -0.63166,2.13996 -1.44563,2.59733 -0.44734,0.25137 -1.742272,1.35267 -2.87762,2.44734 -2.039408,1.96636 -4.423307,3.47865 -6.011706,3.81371 l -0.817155,0.17237 0.643506,-1.91869 c 0.755883,-2.25375 1.085503,-4.71916 0.630941,-4.71916 -0.165878,0 -0.301598,0.28417 -0.301598,0.63148 0,0.7379 -1.052515,4.34919 -1.685946,5.78466 l -0.437822,0.99219 h 0.938829 c 0.516355,0 1.860886,-0.30474 2.987849,-0.67721 z m 1.364089,-2.60675 c 0.988382,-0.63938 1.877798,-1.29315 1.976479,-1.45282 0.305203,-0.49382 -0.703588,-0.32131 -2.10077,0.35926 -1.583783,0.77147 -2.005174,1.10244 -2.63438,2.0691 l -0.477951,0.73429 0.719781,-0.27365 c 0.395877,-0.15052 1.528455,-0.79679 2.516841,-1.43618 z m 15.226403,-13.41636 c 0.43265,-2.80894 0.50453,-5.46675 0.16243,-6.00627 -0.14375,-0.22671 -0.27529,0.10512 -0.37482,0.94547 -0.16206,1.36833 -0.92147,3.24029 -1.31451,3.24029 -0.12838,0 -0.17028,-0.20836 -0.0931,-0.46302 0.71817,-2.3703 0.88682,-4.86512 0.35839,-5.30165 -0.22965,-0.18972 -0.63397,-0.16872 -1.32292,0.0687 -0.5457,0.18807 -0.99219,0.2369 -0.99219,0.10853 0,-0.45276 -1.51074,-0.22759 -1.98437,0.29576 -0.73063,0.80734 -0.9313,0.64136 -0.75751,-0.62657 0.1782,-1.30009 -0.096,-1.64378 -0.87562,-1.09769 -0.37743,0.26437 -0.49712,0.58571 -0.41827,1.12295 0.0653,0.44467 -0.16375,1.37263 -0.55973,2.26802 l -0.67019,1.51541 0.84691,-0.63479 c 2.11058,-1.58199 4.7557,-2.31624 5.53538,-1.53656 1.11508,1.11507 -0.70727,5.48831 -3.38749,8.12925 l -1.67047,1.64598 2.4337,0.11376 c 1.79035,0.0837 2.71348,0.26019 3.49204,0.66766 l 1.05833,0.55389 0.071,-1.23201 c 0.0391,-0.6776 0.24742,-2.37731 0.46302,-3.77712 z m -11.778819,4.0364 c 0,-0.12568 0.313891,-0.5424 0.697537,-0.92604 0.871112,-0.87112 2.212882,-0.97321 2.212882,-0.16837 0,0.78656 0.32688,0.65946 1.87113,-0.72761 2.35653,-2.11667 4.47048,-5.88852 4.10851,-7.33071 -0.20976,-0.83576 -0.7106,-0.85445 -2.72857,-0.10182 -2.9775,1.11051 -6.690656,5.80949 -6.690656,8.46698 0,0.55884 0.119063,1.01608 0.264584,1.01608 0.14552,0 0.264583,-0.10283 0.264583,-0.22851 z m -7.390749,-5.6268 c 0.301675,-0.59133 0.486923,-1.13671 0.411665,-1.21197 -0.217733,-0.21774 -1.923915,0.93262 -2.346129,1.58183 -0.211275,0.32486 -0.528079,1.02985 -0.704009,1.56664 -0.266343,0.81266 -0.25092,1.10933 0.09217,1.77279 0.226623,0.43824 0.618897,0.91256 0.87172,1.05405 0.407987,0.22832 0.497141,0.0354 0.792882,-1.71548 0.183264,-1.08499 0.58003,-2.45653 0.881703,-3.04786 z m 3.773056,0.62978 c 0.157348,-0.24858 -0.123108,-0.33072 -1.129191,-0.33072 -0.894964,0 -1.338205,0.10959 -1.337543,0.33072 0.0013,0.45836 1.010068,2.10983 1.543394,2.52689 0.394158,0.30824 0.454263,0.21178 0.576995,-0.92604 0.07535,-0.69856 0.231209,-1.41894 0.346345,-1.60085 z m 1.144752,2.05053 c 0.367344,-0.43657 0.849421,-0.79375 1.071282,-0.79375 0.297706,0 0.372866,0.20794 0.286887,0.79375 -0.06407,0.43656 -0.01804,0.79375 0.102262,0.79375 0.120319,0 0.21876,-0.0943 0.21876,-0.20954 0,-0.11525 0.588129,-1.23525 1.306954,-2.48889 1.572695,-2.74281 3.325855,-6.5153 3.122365,-6.71879 -0.56767,-0.56766 -4.823826,3.54411 -6.071667,5.86568 -0.694508,1.29212 -1.25939,3.55154 -0.887929,3.55154 0.100754,0 0.483743,-0.35719 0.851086,-0.79375 z m 18.25378,-12.927885 c 3.83598,-4.421894 6.58546,-7.902212 7.34433,-9.296511 1.63918,-3.011718 1.95992,-7.343314 0.79982,-10.801874 -0.65439,-1.950894 -1.7261,-3.750818 -2.23331,-3.750818 -0.52494,0 -0.82743,1.212594 -1.07442,4.30706 -0.38502,4.823883 -0.44728,4.944014 -1.20684,2.32886 -1.45942,-5.024771 -3.33562,-8.426302 -6.27766,-11.381317 -1.69435,-1.701818 -4.52783,-3.683145 -4.8321,-3.378872 -0.30118,0.301183 0.46011,1.940026 1.6162,3.479221 0.64968,0.864962 1.13179,1.622091 1.07138,1.682509 -0.0604,0.06042 -0.44413,-0.125717 -0.85269,-0.413629 -3.40672,-2.400725 -9.20369,-3.599243 -14.328515,-2.962409 -2.339832,0.290758 -4.538284,1.053581 -4.538284,1.574702 0,0.394758 1.488011,0.99083 3.789992,1.518211 2.131798,0.488389 2.316866,0.362418 -1.985859,1.351708 -4.38055,1.007182 -9.54396,3.534442 -11.770804,5.761284 -1.278462,1.278464 -1.43079,1.988489 -0.55779,2.599962 0.832078,0.582808 2.899995,0.527042 9.933715,-0.267888 4.630687,-0.523346 6.532203,-0.633542 8.263663,-0.478896 l 2.248962,0.200869 -1.984379,0.210648 c -3.288863,0.349123 -5.923388,0.786019 -6.458453,1.071036 -0.443788,0.236395 -0.454742,0.297487 -0.08995,0.501634 0.228457,0.127852 2.420387,0.764887 4.870953,1.415635 7.041699,1.869916 9.896399,2.981928 10.958959,4.268909 0.43258,0.523941 0.34379,0.495083 -1.56782,-0.509627 -1.44288,-0.758357 -4.90124,-1.76711 -6.05827,-1.76711 -1.101924,0 -0.530763,0.594029 1.93767,2.015249 2.84925,1.640478 5.73461,4.225642 6.57466,5.890636 0.78026,1.546463 1.0017,3.320314 0.73613,5.896663 l -0.20911,2.02859 0.71699,0.1434 c 0.52424,0.10485 0.809,0.39783 1.05921,1.08979 l 0.34222,0.94639 0.57685,-1.13401 c 0.31727,-0.6237 1.75032,-2.4867 3.18455,-4.140005 z"
       id="path5043"
       inkscape:connector-curvature="0"
       transform="translate(-8.7879523,-41.204613)" />
  </g>
</svg>
